<svg width="455" height="319" viewBox="0 0 455 319" fill="none" xmlns="http://www.w3.org/2000/svg">
<rect x="186.5" y="21.5" width="82" height="40" fill="white" stroke="#FF0000"/>
<path d="M213.42 41.6364C213.42 42.5568 213.254 43.3523 212.922 44.0227C212.589 44.6932 212.134 45.2102 211.554 45.5739C210.974 45.9375 210.313 46.1193 209.568 46.1193C208.824 46.1193 208.162 45.9375 207.582 45.5739C207.003 45.2102 206.547 44.6932 206.214 44.0227C205.882 43.3523 205.716 42.5568 205.716 41.6364C205.716 40.7159 205.882 39.9205 206.214 39.25C206.547 38.5795 207.003 38.0625 207.582 37.6989C208.162 37.3352 208.824 37.1534 209.568 37.1534C210.313 37.1534 210.974 37.3352 211.554 37.6989C212.134 38.0625 212.589 38.5795 212.922 39.25C213.254 39.9205 213.42 40.7159 213.42 41.6364ZM212.398 41.6364C212.398 40.8807 212.271 40.2429 212.018 39.723C211.768 39.2031 211.429 38.8097 211 38.5426C210.574 38.2756 210.097 38.142 209.568 38.142C209.04 38.142 208.561 38.2756 208.132 38.5426C207.706 38.8097 207.366 39.2031 207.114 39.723C206.864 40.2429 206.739 40.8807 206.739 41.6364C206.739 42.392 206.864 43.0298 207.114 43.5497C207.366 44.0696 207.706 44.4631 208.132 44.7301C208.561 44.9972 209.04 45.1307 209.568 45.1307C210.097 45.1307 210.574 44.9972 211 44.7301C211.429 44.4631 211.768 44.0696 212.018 43.5497C212.271 43.0298 212.398 42.392 212.398 41.6364ZM219.186 43.3239V39.4545H220.192V46H219.186V44.892H219.118C218.964 45.2244 218.726 45.5071 218.402 45.7401C218.078 45.9702 217.669 46.0852 217.175 46.0852C216.766 46.0852 216.402 45.9957 216.084 45.8168C215.766 45.6349 215.516 45.3622 215.334 44.9986C215.152 44.6321 215.061 44.1705 215.061 43.6136V39.4545H216.067V43.5455C216.067 44.0227 216.2 44.4034 216.467 44.6875C216.737 44.9716 217.081 45.1136 217.499 45.1136C217.749 45.1136 218.003 45.0497 218.261 44.9219C218.523 44.794 218.741 44.598 218.918 44.3338C219.097 44.0696 219.186 43.733 219.186 43.3239ZM224.88 39.4545V40.3068H221.488V39.4545H224.88ZM222.477 37.8864H223.483V44.125C223.483 44.4091 223.524 44.6222 223.606 44.7642C223.691 44.9034 223.799 44.9972 223.93 45.0455C224.064 45.0909 224.204 45.1136 224.352 45.1136C224.463 45.1136 224.554 45.108 224.625 45.0966C224.696 45.0824 224.752 45.071 224.795 45.0625L225 45.9659C224.931 45.9915 224.836 46.017 224.714 46.0426C224.592 46.071 224.437 46.0852 224.25 46.0852C223.966 46.0852 223.687 46.0241 223.414 45.902C223.145 45.7798 222.92 45.5938 222.741 45.3438C222.565 45.0938 222.477 44.7784 222.477 44.3977V37.8864ZM227.539 37.2727V46H226.534V37.2727H227.539ZM232.04 46.1364C231.45 46.1364 230.931 45.9957 230.485 45.7145C230.042 45.4332 229.695 45.0398 229.445 44.5341C229.198 44.0284 229.075 43.4375 229.075 42.7614C229.075 42.0795 229.198 41.4844 229.445 40.9759C229.695 40.4673 230.042 40.0724 230.485 39.7912C230.931 39.5099 231.45 39.3693 232.04 39.3693C232.631 39.3693 233.148 39.5099 233.592 39.7912C234.038 40.0724 234.384 40.4673 234.631 40.9759C234.881 41.4844 235.006 42.0795 235.006 42.7614C235.006 43.4375 234.881 44.0284 234.631 44.5341C234.384 45.0398 234.038 45.4332 233.592 45.7145C233.148 45.9957 232.631 46.1364 232.04 46.1364ZM232.04 45.233C232.489 45.233 232.859 45.1179 233.148 44.8878C233.438 44.6577 233.653 44.3551 233.792 43.9801C233.931 43.6051 234.001 43.1989 234.001 42.7614C234.001 42.3239 233.931 41.9162 233.792 41.5384C233.653 41.1605 233.438 40.8551 233.148 40.6222C232.859 40.3892 232.489 40.2727 232.04 40.2727C231.592 40.2727 231.222 40.3892 230.933 40.6222C230.643 40.8551 230.428 41.1605 230.289 41.5384C230.15 41.9162 230.08 42.3239 230.08 42.7614C230.08 43.1989 230.15 43.6051 230.289 43.9801C230.428 44.3551 230.643 44.6577 230.933 44.8878C231.222 45.1179 231.592 45.233 232.04 45.233ZM239.201 46.1364C238.61 46.1364 238.091 45.9957 237.645 45.7145C237.202 45.4332 236.855 45.0398 236.605 44.5341C236.358 44.0284 236.235 43.4375 236.235 42.7614C236.235 42.0795 236.358 41.4844 236.605 40.9759C236.855 40.4673 237.202 40.0724 237.645 39.7912C238.091 39.5099 238.61 39.3693 239.201 39.3693C239.792 39.3693 240.309 39.5099 240.752 39.7912C241.198 40.0724 241.544 40.4673 241.792 40.9759C242.042 41.4844 242.167 42.0795 242.167 42.7614C242.167 43.4375 242.042 44.0284 241.792 44.5341C241.544 45.0398 241.198 45.4332 240.752 45.7145C240.309 45.9957 239.792 46.1364 239.201 46.1364ZM239.201 45.233C239.65 45.233 240.019 45.1179 240.309 44.8878C240.598 44.6577 240.813 44.3551 240.952 43.9801C241.091 43.6051 241.161 43.1989 241.161 42.7614C241.161 42.3239 241.091 41.9162 240.952 41.5384C240.813 41.1605 240.598 40.8551 240.309 40.6222C240.019 40.3892 239.65 40.2727 239.201 40.2727C238.752 40.2727 238.382 40.3892 238.093 40.6222C237.803 40.8551 237.588 41.1605 237.449 41.5384C237.31 41.9162 237.24 42.3239 237.24 42.7614C237.24 43.1989 237.31 43.6051 237.449 43.9801C237.588 44.3551 237.803 44.6577 238.093 44.8878C238.382 45.1179 238.752 45.233 239.201 45.233ZM244.639 43.6136L244.622 42.3693H244.827L247.69 39.4545H248.935L245.884 42.5398H245.798L244.639 43.6136ZM243.702 46V37.2727H244.707V46H243.702ZM247.861 46L245.304 42.7614L246.02 42.0625L249.139 46H247.861Z" fill="black"/>
<path d="M310.057 105V96.2727H313.006C313.688 96.2727 314.247 96.3892 314.685 96.6222C315.122 96.8523 315.446 97.169 315.656 97.5724C315.866 97.9759 315.972 98.4347 315.972 98.9489C315.972 99.4631 315.866 99.919 315.656 100.317C315.446 100.714 315.124 101.027 314.689 101.254C314.254 101.479 313.699 101.591 313.023 101.591H310.636V100.636H312.989C313.455 100.636 313.83 100.568 314.114 100.432C314.401 100.295 314.608 100.102 314.736 99.8523C314.866 99.5994 314.932 99.2983 314.932 98.9489C314.932 98.5994 314.866 98.294 314.736 98.0327C314.605 97.7713 314.396 97.5696 314.109 97.4276C313.822 97.2827 313.443 97.2102 312.972 97.2102H311.114V105H310.057ZM314.165 101.08L316.312 105H315.085L312.972 101.08H314.165ZM319.522 105.153C319.108 105.153 318.731 105.075 318.393 104.919C318.055 104.76 317.787 104.531 317.588 104.233C317.389 103.932 317.289 103.568 317.289 103.142C317.289 102.767 317.363 102.463 317.511 102.23C317.659 101.994 317.856 101.81 318.103 101.676C318.35 101.543 318.623 101.443 318.922 101.378C319.223 101.31 319.525 101.256 319.829 101.216C320.227 101.165 320.549 101.126 320.797 101.101C321.047 101.072 321.228 101.026 321.342 100.96C321.458 100.895 321.517 100.781 321.517 100.619V100.585C321.517 100.165 321.402 99.8381 321.172 99.6051C320.944 99.3722 320.599 99.2557 320.136 99.2557C319.656 99.2557 319.279 99.3608 319.007 99.571C318.734 99.7812 318.542 100.006 318.431 100.244L317.477 99.9034C317.647 99.5057 317.875 99.196 318.159 98.9744C318.446 98.75 318.758 98.5937 319.096 98.5057C319.437 98.4148 319.772 98.3693 320.102 98.3693C320.312 98.3693 320.554 98.3949 320.826 98.446C321.102 98.4943 321.368 98.5952 321.623 98.7486C321.882 98.902 322.096 99.1335 322.267 99.4432C322.437 99.7528 322.522 100.168 322.522 100.688V105H321.517V104.114H321.466C321.397 104.256 321.284 104.408 321.125 104.57C320.966 104.732 320.754 104.869 320.49 104.983C320.225 105.097 319.903 105.153 319.522 105.153ZM319.676 104.25C320.074 104.25 320.409 104.172 320.681 104.016C320.957 103.859 321.164 103.658 321.304 103.411C321.446 103.163 321.517 102.903 321.517 102.631V101.71C321.474 101.761 321.38 101.808 321.235 101.851C321.093 101.891 320.929 101.926 320.741 101.957C320.556 101.986 320.376 102.011 320.2 102.034C320.027 102.054 319.886 102.071 319.778 102.085C319.517 102.119 319.272 102.175 319.045 102.251C318.821 102.325 318.639 102.437 318.5 102.588C318.363 102.736 318.295 102.937 318.295 103.193C318.295 103.543 318.424 103.807 318.683 103.986C318.944 104.162 319.275 104.25 319.676 104.25ZM324.358 105V98.4545H325.364V105H324.358ZM324.869 97.3636C324.673 97.3636 324.504 97.2969 324.362 97.1634C324.223 97.0298 324.153 96.8693 324.153 96.6818C324.153 96.4943 324.223 96.3338 324.362 96.2003C324.504 96.0668 324.673 96 324.869 96C325.065 96 325.233 96.0668 325.372 96.2003C325.514 96.3338 325.585 96.4943 325.585 96.6818C325.585 96.8693 325.514 97.0298 325.372 97.1634C325.233 97.2969 325.065 97.3636 324.869 97.3636ZM328.211 101.062V105H327.206V98.4545H328.177V99.4773H328.262C328.416 99.1449 328.649 98.8778 328.961 98.6761C329.274 98.4716 329.677 98.3693 330.172 98.3693C330.615 98.3693 331.002 98.4602 331.335 98.642C331.667 98.821 331.926 99.0938 332.11 99.4602C332.295 99.8239 332.387 100.284 332.387 100.841V105H331.382V100.909C331.382 100.395 331.248 99.9943 330.981 99.7074C330.714 99.4176 330.348 99.2727 329.882 99.2727C329.561 99.2727 329.274 99.3423 329.021 99.4815C328.771 99.6207 328.574 99.8239 328.429 100.091C328.284 100.358 328.211 100.682 328.211 101.062ZM334.638 107.455C334.468 107.455 334.316 107.44 334.183 107.412C334.049 107.386 333.957 107.361 333.906 107.335L334.161 106.449C334.406 106.511 334.621 106.534 334.809 106.517C334.996 106.5 335.163 106.416 335.308 106.266C335.455 106.118 335.59 105.878 335.712 105.545L335.9 105.034L333.479 98.4545H334.57L336.377 103.67H336.445L338.252 98.4545H339.343L336.565 105.955C336.44 106.293 336.285 106.572 336.1 106.794C335.915 107.018 335.701 107.185 335.457 107.293C335.215 107.401 334.942 107.455 334.638 107.455Z" fill="black"/>
<path d="M210.42 100.636C210.42 101.557 210.254 102.352 209.922 103.023C209.589 103.693 209.134 104.21 208.554 104.574C207.974 104.938 207.313 105.119 206.568 105.119C205.824 105.119 205.162 104.938 204.582 104.574C204.003 104.21 203.547 103.693 203.214 103.023C202.882 102.352 202.716 101.557 202.716 100.636C202.716 99.7159 202.882 98.9205 203.214 98.25C203.547 97.5795 204.003 97.0625 204.582 96.6989C205.162 96.3352 205.824 96.1534 206.568 96.1534C207.313 96.1534 207.974 96.3352 208.554 96.6989C209.134 97.0625 209.589 97.5795 209.922 98.25C210.254 98.9205 210.42 99.7159 210.42 100.636ZM209.398 100.636C209.398 99.8807 209.271 99.2429 209.018 98.723C208.768 98.2031 208.429 97.8097 208 97.5426C207.574 97.2756 207.097 97.142 206.568 97.142C206.04 97.142 205.561 97.2756 205.132 97.5426C204.706 97.8097 204.366 98.2031 204.114 98.723C203.864 99.2429 203.739 99.8807 203.739 100.636C203.739 101.392 203.864 102.03 204.114 102.55C204.366 103.07 204.706 103.463 205.132 103.73C205.561 103.997 206.04 104.131 206.568 104.131C207.097 104.131 207.574 103.997 208 103.73C208.429 103.463 208.768 103.07 209.018 102.55C209.271 102.03 209.398 101.392 209.398 100.636ZM217.413 98.4545L214.993 105H213.97L211.55 98.4545H212.641L214.447 103.67H214.516L216.322 98.4545H217.413ZM221.251 105.136C220.62 105.136 220.076 104.997 219.619 104.719C219.164 104.438 218.813 104.045 218.566 103.543C218.322 103.037 218.2 102.449 218.2 101.778C218.2 101.108 218.322 100.517 218.566 100.006C218.813 99.4915 219.157 99.0909 219.597 98.804C220.04 98.5142 220.558 98.3693 221.148 98.3693C221.489 98.3693 221.826 98.4261 222.158 98.5398C222.491 98.6534 222.793 98.8381 223.066 99.0938C223.339 99.3466 223.556 99.6818 223.718 100.099C223.88 100.517 223.961 101.031 223.961 101.642V102.068H218.915V101.199H222.938C222.938 100.83 222.864 100.5 222.717 100.21C222.572 99.9205 222.364 99.6918 222.094 99.5241C221.827 99.3565 221.512 99.2727 221.148 99.2727C220.748 99.2727 220.401 99.3722 220.109 99.571C219.819 99.767 219.596 100.023 219.44 100.338C219.283 100.653 219.205 100.991 219.205 101.352V101.932C219.205 102.426 219.29 102.845 219.461 103.189C219.634 103.53 219.874 103.79 220.181 103.969C220.488 104.145 220.844 104.233 221.251 104.233C221.515 104.233 221.754 104.196 221.967 104.122C222.183 104.045 222.369 103.932 222.525 103.781C222.681 103.628 222.802 103.437 222.887 103.21L223.859 103.483C223.756 103.812 223.585 104.102 223.343 104.352C223.102 104.599 222.803 104.793 222.448 104.932C222.093 105.068 221.694 105.136 221.251 105.136ZM225.491 105V98.4545H226.462V99.4432H226.531C226.65 99.1193 226.866 98.8565 227.178 98.6548C227.491 98.4531 227.843 98.3523 228.235 98.3523C228.309 98.3523 228.401 98.3537 228.512 98.3565C228.623 98.3594 228.707 98.3636 228.763 98.3693V99.392C228.729 99.3835 228.651 99.3707 228.529 99.3537C228.41 99.3338 228.283 99.3239 228.15 99.3239C227.832 99.3239 227.548 99.3906 227.298 99.5241C227.05 99.6548 226.854 99.8366 226.71 100.07C226.567 100.3 226.496 100.562 226.496 100.858V105H225.491ZM232.415 105.136C231.802 105.136 231.273 104.991 230.83 104.702C230.387 104.412 230.046 104.013 229.808 103.504C229.569 102.996 229.45 102.415 229.45 101.761C229.45 101.097 229.572 100.51 229.816 100.001C230.063 99.4901 230.407 99.0909 230.847 98.804C231.29 98.5142 231.808 98.3693 232.398 98.3693C232.859 98.3693 233.273 98.4545 233.643 98.625C234.012 98.7955 234.315 99.0341 234.55 99.3409C234.786 99.6477 234.933 100.006 234.989 100.415H233.984C233.907 100.116 233.737 99.8523 233.472 99.6222C233.211 99.3892 232.859 99.2727 232.415 99.2727C232.023 99.2727 231.68 99.375 231.384 99.5795C231.092 99.7812 230.863 100.067 230.698 100.436C230.536 100.803 230.455 101.233 230.455 101.727C230.455 102.233 230.535 102.673 230.694 103.048C230.856 103.423 231.083 103.714 231.376 103.922C231.671 104.129 232.018 104.233 232.415 104.233C232.677 104.233 232.914 104.188 233.127 104.097C233.34 104.006 233.521 103.875 233.668 103.705C233.816 103.534 233.921 103.33 233.984 103.091H234.989C234.933 103.477 234.792 103.825 234.567 104.135C234.346 104.442 234.052 104.686 233.685 104.868C233.322 105.047 232.898 105.136 232.415 105.136ZM238.386 105.153C237.971 105.153 237.594 105.075 237.256 104.919C236.918 104.76 236.65 104.531 236.451 104.233C236.252 103.932 236.153 103.568 236.153 103.142C236.153 102.767 236.227 102.463 236.374 102.23C236.522 101.994 236.719 101.81 236.967 101.676C237.214 101.543 237.487 101.443 237.785 101.378C238.086 101.31 238.388 101.256 238.692 101.216C239.09 101.165 239.413 101.126 239.66 101.101C239.91 101.072 240.092 101.026 240.205 100.96C240.322 100.895 240.38 100.781 240.38 100.619V100.585C240.38 100.165 240.265 99.8381 240.035 99.6051C239.808 99.3722 239.462 99.2557 238.999 99.2557C238.519 99.2557 238.143 99.3608 237.87 99.571C237.597 99.7812 237.406 100.006 237.295 100.244L236.34 99.9034C236.511 99.5057 236.738 99.196 237.022 98.9744C237.309 98.75 237.621 98.5937 237.96 98.5057C238.3 98.4148 238.636 98.3693 238.965 98.3693C239.175 98.3693 239.417 98.3949 239.69 98.446C239.965 98.4943 240.231 98.5952 240.487 98.7486C240.745 98.902 240.96 99.1335 241.13 99.4432C241.3 99.7528 241.386 100.168 241.386 100.688V105H240.38V104.114H240.329C240.261 104.256 240.147 104.408 239.988 104.57C239.829 104.732 239.617 104.869 239.353 104.983C239.089 105.097 238.766 105.153 238.386 105.153ZM238.539 104.25C238.937 104.25 239.272 104.172 239.545 104.016C239.82 103.859 240.028 103.658 240.167 103.411C240.309 103.163 240.38 102.903 240.38 102.631V101.71C240.337 101.761 240.244 101.808 240.099 101.851C239.957 101.891 239.792 101.926 239.604 101.957C239.42 101.986 239.239 102.011 239.063 102.034C238.89 102.054 238.749 102.071 238.641 102.085C238.38 102.119 238.136 102.175 237.908 102.251C237.684 102.325 237.502 102.437 237.363 102.588C237.227 102.736 237.158 102.937 237.158 103.193C237.158 103.543 237.288 103.807 237.546 103.986C237.808 104.162 238.138 104.25 238.539 104.25ZM247.858 99.9205L246.954 100.176C246.897 100.026 246.814 99.8793 246.703 99.7372C246.595 99.5923 246.447 99.473 246.26 99.3793C246.072 99.2855 245.832 99.2386 245.539 99.2386C245.139 99.2386 244.805 99.331 244.538 99.5156C244.274 99.6974 244.142 99.929 244.142 100.21C244.142 100.46 244.233 100.658 244.414 100.803C244.596 100.947 244.88 101.068 245.267 101.165L246.238 101.403C246.824 101.545 247.26 101.763 247.547 102.055C247.833 102.345 247.977 102.719 247.977 103.176C247.977 103.551 247.869 103.886 247.653 104.182C247.44 104.477 247.142 104.71 246.758 104.881C246.375 105.051 245.929 105.136 245.42 105.136C244.752 105.136 244.2 104.991 243.762 104.702C243.325 104.412 243.048 103.989 242.931 103.432L243.886 103.193C243.977 103.545 244.149 103.81 244.402 103.986C244.657 104.162 244.991 104.25 245.403 104.25C245.872 104.25 246.244 104.151 246.52 103.952C246.798 103.75 246.937 103.509 246.937 103.227C246.937 103 246.858 102.81 246.699 102.656C246.539 102.5 246.295 102.384 245.966 102.307L244.875 102.051C244.275 101.909 243.835 101.689 243.554 101.391C243.275 101.089 243.136 100.713 243.136 100.261C243.136 99.892 243.24 99.5653 243.447 99.2812C243.657 98.9972 243.943 98.7741 244.304 98.6122C244.667 98.4503 245.079 98.3693 245.539 98.3693C246.187 98.3693 246.696 98.5114 247.065 98.7955C247.437 99.0795 247.701 99.4545 247.858 99.9205ZM252.337 98.4545V99.3068H248.945V98.4545H252.337ZM249.934 96.8864H250.94V103.125C250.94 103.409 250.981 103.622 251.063 103.764C251.148 103.903 251.256 103.997 251.387 104.045C251.521 104.091 251.661 104.114 251.809 104.114C251.92 104.114 252.011 104.108 252.082 104.097C252.153 104.082 252.21 104.071 252.252 104.062L252.457 104.966C252.388 104.991 252.293 105.017 252.171 105.043C252.049 105.071 251.894 105.085 251.707 105.085C251.423 105.085 251.144 105.024 250.871 104.902C250.602 104.78 250.377 104.594 250.198 104.344C250.022 104.094 249.934 103.778 249.934 103.398V96.8864Z" fill="black"/>
<path d="M121.83 98.4545C121.778 98.0227 121.571 97.6875 121.207 97.4489C120.844 97.2102 120.398 97.0909 119.869 97.0909C119.483 97.0909 119.145 97.1534 118.855 97.2784C118.568 97.4034 118.344 97.5753 118.182 97.794C118.023 98.0128 117.943 98.2614 117.943 98.5398C117.943 98.7727 117.999 98.973 118.109 99.1406C118.223 99.3054 118.368 99.4432 118.544 99.554C118.72 99.6619 118.905 99.7514 119.098 99.8224C119.291 99.8906 119.469 99.946 119.631 99.9886L120.517 100.227C120.744 100.287 120.997 100.369 121.276 100.474C121.557 100.58 121.825 100.723 122.081 100.905C122.339 101.084 122.553 101.314 122.72 101.595C122.888 101.876 122.972 102.222 122.972 102.631C122.972 103.102 122.848 103.528 122.601 103.909C122.357 104.29 121.999 104.592 121.527 104.817C121.058 105.041 120.489 105.153 119.818 105.153C119.193 105.153 118.652 105.053 118.195 104.851C117.74 104.649 117.382 104.368 117.121 104.007C116.862 103.646 116.716 103.227 116.682 102.75H117.773C117.801 103.08 117.912 103.352 118.105 103.568C118.301 103.781 118.548 103.94 118.847 104.045C119.148 104.148 119.472 104.199 119.818 104.199C120.222 104.199 120.584 104.134 120.905 104.003C121.226 103.869 121.48 103.685 121.668 103.449C121.855 103.21 121.949 102.932 121.949 102.614C121.949 102.324 121.868 102.088 121.706 101.906C121.544 101.724 121.331 101.577 121.067 101.463C120.803 101.349 120.517 101.25 120.21 101.165L119.136 100.858C118.455 100.662 117.915 100.382 117.517 100.018C117.119 99.6548 116.92 99.179 116.92 98.5909C116.92 98.1023 117.053 97.6761 117.317 97.3125C117.584 96.946 117.942 96.6619 118.391 96.4602C118.842 96.2557 119.347 96.1534 119.903 96.1534C120.466 96.1534 120.966 96.2543 121.403 96.456C121.841 96.6548 122.188 96.9276 122.443 97.2741C122.702 97.6207 122.838 98.0142 122.852 98.4545H121.83ZM128.698 102.324V98.4545H129.703V105H128.698V103.892H128.63C128.476 104.224 128.238 104.507 127.914 104.74C127.59 104.97 127.181 105.085 126.686 105.085C126.277 105.085 125.914 104.996 125.596 104.817C125.277 104.635 125.027 104.362 124.846 103.999C124.664 103.632 124.573 103.17 124.573 102.614V98.4545H125.578V102.545C125.578 103.023 125.712 103.403 125.979 103.688C126.249 103.972 126.593 104.114 127.01 104.114C127.26 104.114 127.515 104.05 127.773 103.922C128.034 103.794 128.253 103.598 128.429 103.334C128.608 103.07 128.698 102.733 128.698 102.324ZM132.551 101.062V105H131.545V98.4545H132.517V99.4773H132.602C132.756 99.1449 132.989 98.8778 133.301 98.6761C133.614 98.4716 134.017 98.3693 134.511 98.3693C134.955 98.3693 135.342 98.4602 135.675 98.642C136.007 98.821 136.266 99.0938 136.45 99.4602C136.635 99.8239 136.727 100.284 136.727 100.841V105H135.722V100.909C135.722 100.395 135.588 99.9943 135.321 99.7074C135.054 99.4176 134.688 99.2727 134.222 99.2727C133.901 99.2727 133.614 99.3423 133.361 99.4815C133.111 99.6207 132.913 99.8239 132.768 100.091C132.624 100.358 132.551 100.682 132.551 101.062ZM139.571 101.062V105H138.565V98.4545H139.537V99.4773H139.622C139.775 99.1449 140.008 98.8778 140.321 98.6761C140.633 98.4716 141.037 98.3693 141.531 98.3693C141.974 98.3693 142.362 98.4602 142.694 98.642C143.027 98.821 143.285 99.0938 143.47 99.4602C143.654 99.8239 143.747 100.284 143.747 100.841V105H142.741V100.909C142.741 100.395 142.608 99.9943 142.341 99.7074C142.074 99.4176 141.707 99.2727 141.241 99.2727C140.92 99.2727 140.633 99.3423 140.38 99.4815C140.13 99.6207 139.933 99.8239 139.788 100.091C139.643 100.358 139.571 100.682 139.571 101.062ZM145.998 107.455C145.827 107.455 145.675 107.44 145.542 107.412C145.408 107.386 145.316 107.361 145.265 107.335L145.521 106.449C145.765 106.511 145.981 106.534 146.168 106.517C146.356 106.5 146.522 106.416 146.667 106.266C146.815 106.118 146.95 105.878 147.072 105.545L147.259 105.034L144.839 98.4545H145.93L147.737 103.67H147.805L149.612 98.4545H150.702L147.924 105.955C147.799 106.293 147.644 106.572 147.46 106.794C147.275 107.018 147.06 107.185 146.816 107.293C146.575 107.401 146.302 107.455 145.998 107.455Z" fill="black"/>
<path d="M30.0568 227V218.273H31.1136V222.159H35.767V218.273H36.8239V227H35.767V223.097H31.1136V227H30.0568ZM38.8033 227V220.455H39.8089V227H38.8033ZM39.3146 219.364C39.1186 219.364 38.9496 219.297 38.8075 219.163C38.6683 219.03 38.5987 218.869 38.5987 218.682C38.5987 218.494 38.6683 218.334 38.8075 218.2C38.9496 218.067 39.1186 218 39.3146 218C39.5107 218 39.6783 218.067 39.8175 218.2C39.9595 218.334 40.0305 218.494 40.0305 218.682C40.0305 218.869 39.9595 219.03 39.8175 219.163C39.6783 219.297 39.5107 219.364 39.3146 219.364ZM44.293 229.591C43.8072 229.591 43.3896 229.528 43.0401 229.403C42.6907 229.281 42.3995 229.119 42.1665 228.918C41.9364 228.719 41.7532 228.506 41.6168 228.278L42.418 227.716C42.5089 227.835 42.6239 227.972 42.7631 228.125C42.9023 228.281 43.0927 228.416 43.3342 228.53C43.5785 228.646 43.8981 228.705 44.293 228.705C44.8214 228.705 45.2575 228.577 45.6012 228.321C45.945 228.065 46.1168 227.665 46.1168 227.119V225.79H46.0316C45.9577 225.909 45.8526 226.057 45.7163 226.233C45.5827 226.406 45.3896 226.561 45.1367 226.697C44.8867 226.831 44.5487 226.898 44.1225 226.898C43.5941 226.898 43.1197 226.773 42.6992 226.523C42.2816 226.273 41.9506 225.909 41.7063 225.432C41.4648 224.955 41.3441 224.375 41.3441 223.693C41.3441 223.023 41.462 222.439 41.6978 221.942C41.9336 221.442 42.2617 221.055 42.6822 220.783C43.1026 220.507 43.5884 220.369 44.1396 220.369C44.5657 220.369 44.9038 220.44 45.1538 220.582C45.4066 220.722 45.5998 220.881 45.7333 221.06C45.8697 221.236 45.9748 221.381 46.0487 221.494H46.1509V220.455H47.1225V227.188C47.1225 227.75 46.9947 228.207 46.739 228.56C46.4862 228.915 46.1452 229.175 45.7163 229.339C45.2901 229.507 44.8157 229.591 44.293 229.591ZM44.2589 225.994C44.6623 225.994 45.0032 225.902 45.2816 225.717C45.56 225.533 45.7717 225.267 45.9165 224.92C46.0614 224.574 46.1339 224.159 46.1339 223.676C46.1339 223.205 46.0629 222.788 45.9208 222.428C45.7788 222.067 45.5685 221.784 45.2901 221.58C45.0117 221.375 44.668 221.273 44.2589 221.273C43.8327 221.273 43.4776 221.381 43.1935 221.597C42.9123 221.812 42.7006 222.102 42.5586 222.466C42.4194 222.83 42.3498 223.233 42.3498 223.676C42.3498 224.131 42.4208 224.533 42.5629 224.882C42.7077 225.229 42.9208 225.501 43.2021 225.7C43.4862 225.896 43.8384 225.994 44.2589 225.994ZM49.9691 223.062V227H48.9634V218.273H49.9691V221.477H50.0543C50.2077 221.139 50.4379 220.871 50.7447 220.672C51.0543 220.47 51.4663 220.369 51.9805 220.369C52.4265 220.369 52.8171 220.459 53.1523 220.638C53.4876 220.814 53.7475 221.085 53.9322 221.452C54.1197 221.815 54.2134 222.278 54.2134 222.841V227H53.2077V222.909C53.2077 222.389 53.0728 221.987 52.8029 221.703C52.5359 221.416 52.1651 221.273 51.6907 221.273C51.3612 221.273 51.0657 221.342 50.8043 221.482C50.5458 221.621 50.3413 221.824 50.1907 222.091C50.043 222.358 49.9691 222.682 49.9691 223.062Z" fill="black"/>
<path d="M394.057 229V220.273H399.29V221.21H395.114V224.159H398.898V225.097H395.114V229H394.057ZM402.89 229.153C402.475 229.153 402.098 229.075 401.76 228.919C401.422 228.76 401.154 228.531 400.955 228.233C400.756 227.932 400.657 227.568 400.657 227.142C400.657 226.767 400.73 226.463 400.878 226.23C401.026 225.994 401.223 225.81 401.471 225.676C401.718 225.543 401.99 225.443 402.289 225.378C402.59 225.31 402.892 225.256 403.196 225.216C403.594 225.165 403.917 225.126 404.164 225.101C404.414 225.072 404.596 225.026 404.709 224.96C404.826 224.895 404.884 224.781 404.884 224.619V224.585C404.884 224.165 404.769 223.838 404.539 223.605C404.311 223.372 403.966 223.256 403.503 223.256C403.023 223.256 402.647 223.361 402.374 223.571C402.101 223.781 401.909 224.006 401.799 224.244L400.844 223.903C401.015 223.506 401.242 223.196 401.526 222.974C401.813 222.75 402.125 222.594 402.463 222.506C402.804 222.415 403.14 222.369 403.469 222.369C403.679 222.369 403.921 222.395 404.194 222.446C404.469 222.494 404.735 222.595 404.99 222.749C405.249 222.902 405.463 223.134 405.634 223.443C405.804 223.753 405.89 224.168 405.89 224.688V229H404.884V228.114H404.833C404.765 228.256 404.651 228.408 404.492 228.57C404.333 228.732 404.121 228.869 403.857 228.983C403.593 229.097 403.27 229.153 402.89 229.153ZM403.043 228.25C403.441 228.25 403.776 228.172 404.049 228.016C404.324 227.859 404.532 227.658 404.671 227.411C404.813 227.163 404.884 226.903 404.884 226.631V225.71C404.841 225.761 404.748 225.808 404.603 225.851C404.461 225.891 404.296 225.926 404.108 225.957C403.924 225.986 403.743 226.011 403.567 226.034C403.394 226.054 403.253 226.071 403.145 226.085C402.884 226.119 402.64 226.175 402.412 226.251C402.188 226.325 402.006 226.437 401.867 226.588C401.73 226.736 401.662 226.937 401.662 227.193C401.662 227.543 401.792 227.807 402.05 227.986C402.311 228.162 402.642 228.25 403.043 228.25ZM408.731 220.273V229H407.725V220.273H408.731ZM415.209 223.92L414.306 224.176C414.249 224.026 414.165 223.879 414.054 223.737C413.946 223.592 413.799 223.473 413.611 223.379C413.424 223.286 413.184 223.239 412.891 223.239C412.49 223.239 412.157 223.331 411.89 223.516C411.625 223.697 411.493 223.929 411.493 224.21C411.493 224.46 411.584 224.658 411.766 224.803C411.948 224.947 412.232 225.068 412.618 225.165L413.59 225.403C414.175 225.545 414.611 225.763 414.898 226.055C415.185 226.345 415.328 226.719 415.328 227.176C415.328 227.551 415.221 227.886 415.005 228.182C414.792 228.477 414.493 228.71 414.11 228.881C413.726 229.051 413.28 229.136 412.772 229.136C412.104 229.136 411.551 228.991 411.114 228.702C410.676 228.412 410.4 227.989 410.283 227.432L411.238 227.193C411.328 227.545 411.5 227.81 411.753 227.986C412.009 228.162 412.343 228.25 412.755 228.25C413.223 228.25 413.596 228.151 413.871 227.952C414.15 227.75 414.289 227.509 414.289 227.227C414.289 227 414.209 226.81 414.05 226.656C413.891 226.5 413.647 226.384 413.317 226.307L412.226 226.051C411.627 225.909 411.186 225.689 410.905 225.391C410.627 225.089 410.488 224.713 410.488 224.261C410.488 223.892 410.591 223.565 410.799 223.281C411.009 222.997 411.294 222.774 411.655 222.612C412.019 222.45 412.431 222.369 412.891 222.369C413.539 222.369 414.047 222.511 414.417 222.795C414.789 223.08 415.053 223.455 415.209 223.92ZM419.587 229.136C418.956 229.136 418.412 228.997 417.955 228.719C417.5 228.438 417.149 228.045 416.902 227.543C416.658 227.037 416.536 226.449 416.536 225.778C416.536 225.108 416.658 224.517 416.902 224.006C417.149 223.491 417.493 223.091 417.933 222.804C418.376 222.514 418.893 222.369 419.484 222.369C419.825 222.369 420.162 222.426 420.494 222.54C420.827 222.653 421.129 222.838 421.402 223.094C421.675 223.347 421.892 223.682 422.054 224.099C422.216 224.517 422.297 225.031 422.297 225.642V226.068H417.251V225.199H421.274C421.274 224.83 421.2 224.5 421.053 224.21C420.908 223.92 420.7 223.692 420.43 223.524C420.163 223.357 419.848 223.273 419.484 223.273C419.084 223.273 418.737 223.372 418.445 223.571C418.155 223.767 417.932 224.023 417.776 224.338C417.619 224.653 417.541 224.991 417.541 225.352V225.932C417.541 226.426 417.626 226.845 417.797 227.189C417.97 227.53 418.21 227.79 418.517 227.969C418.824 228.145 419.18 228.233 419.587 228.233C419.851 228.233 420.089 228.196 420.303 228.122C420.518 228.045 420.705 227.932 420.861 227.781C421.017 227.628 421.138 227.437 421.223 227.21L422.195 227.483C422.092 227.812 421.92 228.102 421.679 228.352C421.438 228.599 421.139 228.793 420.784 228.932C420.429 229.068 420.03 229.136 419.587 229.136Z" fill="black"/>
<path d="M322.58 221.21V220.273H329.125V221.21H326.381V229H325.324V221.21H322.58ZM329.94 229V222.455H330.912V223.443H330.98C331.099 223.119 331.315 222.857 331.627 222.655C331.94 222.453 332.292 222.352 332.684 222.352C332.758 222.352 332.85 222.354 332.961 222.357C333.072 222.359 333.156 222.364 333.213 222.369V223.392C333.179 223.384 333.1 223.371 332.978 223.354C332.859 223.334 332.733 223.324 332.599 223.324C332.281 223.324 331.997 223.391 331.747 223.524C331.5 223.655 331.304 223.837 331.159 224.07C331.017 224.3 330.946 224.562 330.946 224.858V229H329.94ZM338.53 226.324V222.455H339.536V229H338.53V227.892H338.462C338.308 228.224 338.07 228.507 337.746 228.74C337.422 228.97 337.013 229.085 336.518 229.085C336.109 229.085 335.746 228.996 335.428 228.817C335.109 228.635 334.859 228.362 334.678 227.999C334.496 227.632 334.405 227.17 334.405 226.614V222.455H335.411V226.545C335.411 227.023 335.544 227.403 335.811 227.688C336.081 227.972 336.425 228.114 336.842 228.114C337.092 228.114 337.347 228.05 337.605 227.922C337.866 227.794 338.085 227.598 338.261 227.334C338.44 227.07 338.53 226.733 338.53 226.324ZM344.122 229.136C343.491 229.136 342.947 228.997 342.49 228.719C342.035 228.438 341.684 228.045 341.437 227.543C341.193 227.037 341.071 226.449 341.071 225.778C341.071 225.108 341.193 224.517 341.437 224.006C341.684 223.491 342.028 223.091 342.468 222.804C342.912 222.514 343.429 222.369 344.02 222.369C344.36 222.369 344.697 222.426 345.029 222.54C345.362 222.653 345.664 222.838 345.937 223.094C346.21 223.347 346.427 223.682 346.589 224.099C346.751 224.517 346.832 225.031 346.832 225.642V226.068H341.787V225.199H345.809C345.809 224.83 345.735 224.5 345.588 224.21C345.443 223.92 345.235 223.692 344.966 223.524C344.699 223.357 344.383 223.273 344.02 223.273C343.619 223.273 343.272 223.372 342.98 223.571C342.69 223.767 342.467 224.023 342.311 224.338C342.154 224.653 342.076 224.991 342.076 225.352V225.932C342.076 226.426 342.162 226.845 342.332 227.189C342.505 227.53 342.745 227.79 343.052 227.969C343.359 228.145 343.716 228.233 344.122 228.233C344.386 228.233 344.625 228.196 344.838 228.122C345.054 228.045 345.24 227.932 345.396 227.781C345.552 227.628 345.673 227.437 345.758 227.21L346.73 227.483C346.627 227.812 346.456 228.102 346.214 228.352C345.973 228.599 345.674 228.793 345.319 228.932C344.964 229.068 344.565 229.136 344.122 229.136Z" fill="black"/>
<path d="M100.977 220.273V229H99.9545L95.1989 222.148H95.1136V229H94.0568V220.273H95.0795L99.8523 227.142H99.9375V220.273H100.977ZM105.615 229.136C105.024 229.136 104.505 228.996 104.059 228.714C103.616 228.433 103.27 228.04 103.02 227.534C102.772 227.028 102.649 226.437 102.649 225.761C102.649 225.08 102.772 224.484 103.02 223.976C103.27 223.467 103.616 223.072 104.059 222.791C104.505 222.51 105.024 222.369 105.615 222.369C106.206 222.369 106.723 222.51 107.166 222.791C107.612 223.072 107.958 223.467 108.206 223.976C108.456 224.484 108.581 225.08 108.581 225.761C108.581 226.437 108.456 227.028 108.206 227.534C107.958 228.04 107.612 228.433 107.166 228.714C106.723 228.996 106.206 229.136 105.615 229.136ZM105.615 228.233C106.064 228.233 106.433 228.118 106.723 227.888C107.012 227.658 107.227 227.355 107.366 226.98C107.505 226.605 107.575 226.199 107.575 225.761C107.575 225.324 107.505 224.916 107.366 224.538C107.227 224.161 107.012 223.855 106.723 223.622C106.433 223.389 106.064 223.273 105.615 223.273C105.166 223.273 104.797 223.389 104.507 223.622C104.217 223.855 104.002 224.161 103.863 224.538C103.724 224.916 103.654 225.324 103.654 225.761C103.654 226.199 103.724 226.605 103.863 226.98C104.002 227.355 104.217 227.658 104.507 227.888C104.797 228.118 105.166 228.233 105.615 228.233ZM110.116 229V222.455H111.087V223.443H111.156C111.275 223.119 111.491 222.857 111.803 222.655C112.116 222.453 112.468 222.352 112.86 222.352C112.934 222.352 113.026 222.354 113.137 222.357C113.248 222.359 113.332 222.364 113.388 222.369V223.392C113.354 223.384 113.276 223.371 113.154 223.354C113.035 223.334 112.908 223.324 112.775 223.324C112.457 223.324 112.173 223.391 111.923 223.524C111.675 223.655 111.479 223.837 111.335 224.07C111.192 224.3 111.121 224.562 111.121 224.858V229H110.116ZM114.581 229V222.455H115.552V223.477H115.637C115.774 223.128 115.994 222.857 116.298 222.663C116.602 222.467 116.967 222.369 117.393 222.369C117.825 222.369 118.184 222.467 118.471 222.663C118.761 222.857 118.987 223.128 119.149 223.477H119.217C119.385 223.139 119.636 222.871 119.971 222.672C120.306 222.47 120.708 222.369 121.177 222.369C121.762 222.369 122.241 222.553 122.613 222.919C122.985 223.283 123.172 223.849 123.172 224.619V229H122.166V224.619C122.166 224.136 122.034 223.791 121.77 223.584C121.505 223.376 121.194 223.273 120.836 223.273C120.376 223.273 120.02 223.412 119.767 223.69C119.514 223.966 119.387 224.315 119.387 224.739V229H118.365V224.517C118.365 224.145 118.244 223.845 118.002 223.618C117.761 223.388 117.45 223.273 117.069 223.273C116.808 223.273 116.564 223.342 116.336 223.482C116.112 223.621 115.93 223.814 115.791 224.061C115.654 224.305 115.586 224.588 115.586 224.909V229H114.581ZM126.936 229.153C126.522 229.153 126.145 229.075 125.807 228.919C125.469 228.76 125.201 228.531 125.002 228.233C124.803 227.932 124.703 227.568 124.703 227.142C124.703 226.767 124.777 226.463 124.925 226.23C125.073 225.994 125.27 225.81 125.517 225.676C125.765 225.543 126.037 225.443 126.336 225.378C126.637 225.31 126.939 225.256 127.243 225.216C127.641 225.165 127.963 225.126 128.211 225.101C128.461 225.072 128.642 225.026 128.756 224.96C128.873 224.895 128.931 224.781 128.931 224.619V224.585C128.931 224.165 128.816 223.838 128.586 223.605C128.358 223.372 128.013 223.256 127.55 223.256C127.07 223.256 126.694 223.361 126.421 223.571C126.148 223.781 125.956 224.006 125.846 224.244L124.891 223.903C125.061 223.506 125.289 223.196 125.573 222.974C125.86 222.75 126.172 222.594 126.51 222.506C126.851 222.415 127.186 222.369 127.516 222.369C127.726 222.369 127.968 222.395 128.24 222.446C128.516 222.494 128.782 222.595 129.037 222.749C129.296 222.902 129.51 223.134 129.681 223.443C129.851 223.753 129.936 224.168 129.936 224.688V229H128.931V228.114H128.88C128.811 228.256 128.698 228.408 128.539 228.57C128.38 228.732 128.168 228.869 127.904 228.983C127.64 229.097 127.317 229.153 126.936 229.153ZM127.09 228.25C127.488 228.25 127.823 228.172 128.096 228.016C128.371 227.859 128.578 227.658 128.718 227.411C128.86 227.163 128.931 226.903 128.931 226.631V225.71C128.888 225.761 128.794 225.808 128.65 225.851C128.507 225.891 128.343 225.926 128.155 225.957C127.971 225.986 127.79 226.011 127.614 226.034C127.441 226.054 127.3 226.071 127.192 226.085C126.931 226.119 126.686 226.175 126.459 226.251C126.235 226.325 126.053 226.437 125.914 226.588C125.777 226.736 125.709 226.937 125.709 227.193C125.709 227.543 125.838 227.807 126.097 227.986C126.358 228.162 126.689 228.25 127.09 228.25ZM132.778 220.273V229H131.772V220.273H132.778Z" fill="black"/>
<rect x="333.5" y="149.5" width="82" height="40" fill="white" stroke="#FF0000"/>
<path d="M359.642 174L357.256 165.273H358.33L360.153 172.381H360.239L362.097 165.273H363.29L365.148 172.381H365.233L367.057 165.273H368.131L365.744 174H364.653L362.727 167.045H362.659L360.733 174H359.642ZM369.311 174V167.455H370.317V174H369.311ZM369.822 166.364C369.626 166.364 369.457 166.297 369.315 166.163C369.176 166.03 369.107 165.869 369.107 165.682C369.107 165.494 369.176 165.334 369.315 165.2C369.457 165.067 369.626 165 369.822 165C370.018 165 370.186 165.067 370.325 165.2C370.467 165.334 370.538 165.494 370.538 165.682C370.538 165.869 370.467 166.03 370.325 166.163C370.186 166.297 370.018 166.364 369.822 166.364ZM373.164 170.062V174H372.159V167.455H373.13V168.477H373.216C373.369 168.145 373.602 167.878 373.914 167.676C374.227 167.472 374.63 167.369 375.125 167.369C375.568 167.369 375.956 167.46 376.288 167.642C376.62 167.821 376.879 168.094 377.064 168.46C377.248 168.824 377.341 169.284 377.341 169.841V174H376.335V169.909C376.335 169.395 376.201 168.994 375.934 168.707C375.667 168.418 375.301 168.273 374.835 168.273C374.514 168.273 374.227 168.342 373.974 168.482C373.724 168.621 373.527 168.824 373.382 169.091C373.237 169.358 373.164 169.682 373.164 170.062ZM381.65 174.136C381.104 174.136 380.623 173.999 380.205 173.723C379.788 173.445 379.461 173.053 379.225 172.547C378.989 172.038 378.871 171.438 378.871 170.744C378.871 170.057 378.989 169.46 379.225 168.955C379.461 168.449 379.789 168.058 380.21 167.783C380.63 167.507 381.116 167.369 381.667 167.369C382.093 167.369 382.43 167.44 382.677 167.582C382.927 167.722 383.117 167.881 383.248 168.06C383.381 168.236 383.485 168.381 383.559 168.494H383.644V165.273H384.65V174H383.678V172.994H383.559C383.485 173.114 383.38 173.264 383.244 173.446C383.107 173.625 382.913 173.786 382.66 173.928C382.407 174.067 382.07 174.136 381.65 174.136ZM381.786 173.233C382.19 173.233 382.531 173.128 382.809 172.918C383.087 172.705 383.299 172.411 383.444 172.036C383.589 171.658 383.661 171.222 383.661 170.727C383.661 170.239 383.59 169.811 383.448 169.445C383.306 169.075 383.096 168.788 382.817 168.584C382.539 168.376 382.195 168.273 381.786 168.273C381.36 168.273 381.005 168.382 380.721 168.601C380.44 168.817 380.228 169.111 380.086 169.483C379.947 169.852 379.877 170.267 379.877 170.727C379.877 171.193 379.948 171.616 380.09 171.997C380.235 172.375 380.448 172.676 380.729 172.901C381.013 173.122 381.366 173.233 381.786 173.233ZM387.279 176.455C387.109 176.455 386.957 176.44 386.823 176.412C386.69 176.386 386.597 176.361 386.546 176.335L386.802 175.449C387.046 175.511 387.262 175.534 387.45 175.517C387.637 175.5 387.803 175.416 387.948 175.266C388.096 175.118 388.231 174.878 388.353 174.545L388.54 174.034L386.12 167.455H387.211L389.018 172.67H389.086L390.893 167.455H391.984L389.205 174.955C389.08 175.293 388.925 175.572 388.741 175.794C388.556 176.018 388.342 176.185 388.097 176.293C387.856 176.401 387.583 176.455 387.279 176.455Z" fill="black"/>
<rect x="39.5" y="149.5" width="82" height="40" fill="white" stroke="#FF0000"/>
<path d="M59.0568 174V165.273H60.1136V169.159H64.767V165.273H65.8239V174H64.767V170.097H60.1136V174H59.0568ZM71.9283 171.324V167.455H72.9339V174H71.9283V172.892H71.8601C71.7067 173.224 71.468 173.507 71.1442 173.74C70.8203 173.97 70.4112 174.085 69.9169 174.085C69.5078 174.085 69.1442 173.996 68.826 173.817C68.5078 173.635 68.2578 173.362 68.076 172.999C67.8942 172.632 67.8033 172.17 67.8033 171.614V167.455H68.8089V171.545C68.8089 172.023 68.9425 172.403 69.2095 172.688C69.4794 172.972 69.8232 173.114 70.2408 173.114C70.4908 173.114 70.745 173.05 71.0036 172.922C71.2649 172.794 71.4837 172.598 71.6598 172.334C71.8388 172.07 71.9283 171.733 71.9283 171.324ZM74.7759 174V167.455H75.7475V168.477H75.8327C75.9691 168.128 76.1893 167.857 76.4933 167.663C76.7972 167.467 77.1623 167.369 77.5884 167.369C78.0202 167.369 78.3796 167.467 78.6665 167.663C78.9563 167.857 79.1822 168.128 79.3441 168.477H79.4123C79.5799 168.139 79.8313 167.871 80.1665 167.672C80.5018 167.47 80.9038 167.369 81.3725 167.369C81.9577 167.369 82.4364 167.553 82.8086 167.919C83.1808 168.283 83.3668 168.849 83.3668 169.619V174H82.3612V169.619C82.3612 169.136 82.229 168.791 81.9648 168.584C81.7006 168.376 81.3896 168.273 81.0316 168.273C80.5714 168.273 80.2148 168.412 79.962 168.69C79.7092 168.966 79.5827 169.315 79.5827 169.739V174H78.56V169.517C78.56 169.145 78.4393 168.845 78.1978 168.618C77.9563 168.388 77.6452 168.273 77.2646 168.273C77.0032 168.273 76.7589 168.342 76.5316 168.482C76.3072 168.621 76.1254 168.814 75.9862 169.061C75.8498 169.305 75.7816 169.588 75.7816 169.909V174H74.7759ZM85.2056 174V167.455H86.2113V174H85.2056ZM85.717 166.364C85.521 166.364 85.3519 166.297 85.2099 166.163C85.0707 166.03 85.0011 165.869 85.0011 165.682C85.0011 165.494 85.0707 165.334 85.2099 165.2C85.3519 165.067 85.521 165 85.717 165C85.913 165 86.0806 165.067 86.2198 165.2C86.3619 165.334 86.4329 165.494 86.4329 165.682C86.4329 165.869 86.3619 166.03 86.2198 166.163C86.0806 166.297 85.913 166.364 85.717 166.364ZM90.5249 174.136C89.9794 174.136 89.4979 173.999 89.0803 173.723C88.6626 173.445 88.3359 173.053 88.1001 172.547C87.8643 172.038 87.7464 171.438 87.7464 170.744C87.7464 170.057 87.8643 169.46 88.1001 168.955C88.3359 168.449 88.6641 168.058 89.0845 167.783C89.505 167.507 89.9908 167.369 90.5419 167.369C90.968 167.369 91.3047 167.44 91.5518 167.582C91.8018 167.722 91.9922 167.881 92.1229 168.06C92.2564 168.236 92.3601 168.381 92.4339 168.494H92.5192V165.273H93.5249V174H92.5533V172.994H92.4339C92.3601 173.114 92.255 173.264 92.1186 173.446C91.9822 173.625 91.7876 173.786 91.5348 173.928C91.282 174.067 90.9453 174.136 90.5249 174.136ZM90.6612 173.233C91.0646 173.233 91.4055 173.128 91.6839 172.918C91.9624 172.705 92.174 172.411 92.3189 172.036C92.4638 171.658 92.5362 171.222 92.5362 170.727C92.5362 170.239 92.4652 169.811 92.3232 169.445C92.1811 169.075 91.9709 168.788 91.6925 168.584C91.4141 168.376 91.0703 168.273 90.6612 168.273C90.2351 168.273 89.88 168.382 89.5959 168.601C89.3146 168.817 89.103 169.111 88.9609 169.483C88.8217 169.852 88.7521 170.267 88.7521 170.727C88.7521 171.193 88.8232 171.616 88.9652 171.997C89.1101 172.375 89.3232 172.676 89.6044 172.901C89.8885 173.122 90.2408 173.233 90.6612 173.233ZM95.5064 174V167.455H96.5121V174H95.5064ZM96.0178 166.364C95.8217 166.364 95.6527 166.297 95.5107 166.163C95.3714 166.03 95.3018 165.869 95.3018 165.682C95.3018 165.494 95.3714 165.334 95.5107 165.2C95.6527 165.067 95.8217 165 96.0178 165C96.2138 165 96.3814 165.067 96.5206 165.2C96.6626 165.334 96.7337 165.494 96.7337 165.682C96.7337 165.869 96.6626 166.03 96.5206 166.163C96.3814 166.297 96.2138 166.364 96.0178 166.364ZM101.201 167.455V168.307H97.8086V167.455H101.201ZM98.7972 165.886H99.8029V172.125C99.8029 172.409 99.8441 172.622 99.9265 172.764C100.012 172.903 100.12 172.997 100.25 173.045C100.384 173.091 100.525 173.114 100.672 173.114C100.783 173.114 100.874 173.108 100.945 173.097C101.016 173.082 101.073 173.071 101.115 173.062L101.32 173.966C101.252 173.991 101.157 174.017 101.034 174.043C100.912 174.071 100.757 174.085 100.57 174.085C100.286 174.085 100.007 174.024 99.7347 173.902C99.4648 173.78 99.2404 173.594 99.0614 173.344C98.8853 173.094 98.7972 172.778 98.7972 172.398V165.886ZM103.361 176.455C103.191 176.455 103.039 176.44 102.905 176.412C102.772 176.386 102.679 176.361 102.628 176.335L102.884 175.449C103.128 175.511 103.344 175.534 103.532 175.517C103.719 175.5 103.885 175.416 104.03 175.266C104.178 175.118 104.313 174.878 104.435 174.545L104.623 174.034L102.202 167.455H103.293L105.1 172.67H105.168L106.975 167.455H108.066L105.287 174.955C105.162 175.293 105.007 175.572 104.823 175.794C104.638 176.018 104.424 176.185 104.179 176.293C103.938 176.401 103.665 176.455 103.361 176.455Z" fill="black"/>
<path d="M226.293 155.707C226.683 156.098 227.317 156.098 227.707 155.707L234.071 149.343C234.462 148.953 234.462 148.319 234.071 147.929C233.681 147.538 233.047 147.538 232.657 147.929L227 153.586L221.343 147.929C220.953 147.538 220.319 147.538 219.929 147.929C219.538 148.319 219.538 148.953 219.929 149.343L226.293 155.707ZM226 108L226 155L228 155L228 108L226 108Z" fill="black"/>
<path d="M226.293 93.7071C226.683 94.0976 227.317 94.0976 227.707 93.7071L234.071 87.3431C234.462 86.9526 234.462 86.3195 234.071 85.9289C233.681 85.5384 233.047 85.5384 232.657 85.9289L227 91.5858L221.343 85.9289C220.953 85.5384 220.319 85.5384 219.929 85.9289C219.538 86.3195 219.538 86.9526 219.929 87.3431L226.293 93.7071ZM226 62L226 93L228 93L228 62L226 62Z" fill="black"/>
<path d="M153.064 94.6469C152.869 95.1637 153.13 95.7406 153.647 95.9356L162.067 99.1131C162.584 99.3081 163.161 99.0473 163.356 98.5306C163.551 98.0139 163.29 97.4369 162.773 97.2419L155.289 94.4175L158.113 86.9326C158.308 86.4159 158.047 85.839 157.531 85.644C157.014 85.449 156.437 85.7098 156.242 86.2265L153.064 94.6469ZM226.588 61.0888L153.588 94.0888L154.412 95.9112L227.412 62.9112L226.588 61.0888Z" fill="black"/>
<path d="M305.376 95.9267C305.888 95.7192 306.134 95.1361 305.927 94.6243L302.545 86.2836C302.338 85.7718 301.755 85.5251 301.243 85.7326C300.731 85.9401 300.484 86.5232 300.692 87.0351L303.698 94.449L296.284 97.4546C295.772 97.6621 295.525 98.2452 295.733 98.757C295.94 99.2689 296.523 99.5156 297.035 99.3081L305.376 95.9267ZM226.61 62.921L304.61 95.921L305.39 94.079L227.39 61.079L226.61 62.921Z" fill="black"/>
<path d="M246.5 177C246.5 187.205 238.006 195.5 227.5 195.5C216.994 195.5 208.5 187.205 208.5 177C208.5 166.795 216.994 158.5 227.5 158.5C238.006 158.5 246.5 166.795 246.5 177Z" fill="white" stroke="black"/>
<path d="M216.307 173.273H217.517L219.938 177.347H220.04L222.46 173.273H223.67L220.517 178.403V182H219.46V178.403L216.307 173.273ZM226.719 182.136C226.089 182.136 225.545 181.997 225.087 181.719C224.633 181.438 224.282 181.045 224.035 180.543C223.79 180.037 223.668 179.449 223.668 178.778C223.668 178.108 223.79 177.517 224.035 177.006C224.282 176.491 224.626 176.091 225.066 175.804C225.509 175.514 226.026 175.369 226.617 175.369C226.958 175.369 227.295 175.426 227.627 175.54C227.96 175.653 228.262 175.838 228.535 176.094C228.808 176.347 229.025 176.682 229.187 177.099C229.349 177.517 229.43 178.031 229.43 178.642V179.068H224.384V178.199H228.407C228.407 177.83 228.333 177.5 228.185 177.21C228.04 176.92 227.833 176.692 227.563 176.524C227.296 176.357 226.981 176.273 226.617 176.273C226.217 176.273 225.87 176.372 225.577 176.571C225.288 176.767 225.065 177.023 224.908 177.338C224.752 177.653 224.674 177.991 224.674 178.352V178.932C224.674 179.426 224.759 179.845 224.93 180.189C225.103 180.53 225.343 180.79 225.65 180.969C225.957 181.145 226.313 181.233 226.719 181.233C226.984 181.233 227.222 181.196 227.435 181.122C227.651 181.045 227.837 180.932 227.994 180.781C228.15 180.628 228.271 180.437 228.356 180.21L229.327 180.483C229.225 180.812 229.053 181.102 228.812 181.352C228.57 181.599 228.272 181.793 227.917 181.932C227.562 182.068 227.163 182.136 226.719 182.136ZM235.596 176.92L234.692 177.176C234.636 177.026 234.552 176.879 234.441 176.737C234.333 176.592 234.185 176.473 233.998 176.379C233.81 176.286 233.57 176.239 233.278 176.239C232.877 176.239 232.543 176.331 232.276 176.516C232.012 176.697 231.88 176.929 231.88 177.21C231.88 177.46 231.971 177.658 232.153 177.803C232.335 177.947 232.619 178.068 233.005 178.165L233.977 178.403C234.562 178.545 234.998 178.763 235.285 179.055C235.572 179.345 235.715 179.719 235.715 180.176C235.715 180.551 235.607 180.886 235.391 181.182C235.178 181.477 234.88 181.71 234.496 181.881C234.113 182.051 233.667 182.136 233.158 182.136C232.491 182.136 231.938 181.991 231.501 181.702C231.063 181.412 230.786 180.989 230.67 180.432L231.624 180.193C231.715 180.545 231.887 180.81 232.14 180.986C232.396 181.162 232.729 181.25 233.141 181.25C233.61 181.25 233.982 181.151 234.258 180.952C234.536 180.75 234.675 180.509 234.675 180.227C234.675 180 234.596 179.81 234.437 179.656C234.278 179.5 234.033 179.384 233.704 179.307L232.613 179.051C232.013 178.909 231.573 178.689 231.292 178.391C231.013 178.089 230.874 177.713 230.874 177.261C230.874 176.892 230.978 176.565 231.185 176.281C231.396 175.997 231.681 175.774 232.042 175.612C232.406 175.45 232.817 175.369 233.278 175.369C233.925 175.369 234.434 175.511 234.803 175.795C235.175 176.08 235.44 176.455 235.596 176.92Z" fill="black"/>
<ellipse cx="435.5" cy="276" rx="19.5" ry="19" fill="#D9D9D9"/>
<path d="M454.5 276C454.5 286.205 446.006 294.5 435.5 294.5C424.994 294.5 416.5 286.205 416.5 276C416.5 265.795 424.994 257.5 435.5 257.5C446.006 257.5 454.5 265.795 454.5 276Z" fill="white" stroke="black"/>
<ellipse cx="314.5" cy="277" rx="19.5" ry="19" fill="#D9D9D9"/>
<path d="M333.5 277C333.5 287.205 325.006 295.5 314.5 295.5C303.994 295.5 295.5 287.205 295.5 277C295.5 266.795 303.994 258.5 314.5 258.5C325.006 258.5 333.5 266.795 333.5 277Z" fill="white" stroke="black"/>
<path d="M312.977 272.273V281H311.955L307.199 274.148H307.114V281H306.057V272.273H307.08L311.852 279.142H311.938V272.273H312.977ZM317.615 281.136C317.024 281.136 316.505 280.996 316.059 280.714C315.616 280.433 315.27 280.04 315.02 279.534C314.772 279.028 314.649 278.437 314.649 277.761C314.649 277.08 314.772 276.484 315.02 275.976C315.27 275.467 315.616 275.072 316.059 274.791C316.505 274.51 317.024 274.369 317.615 274.369C318.206 274.369 318.723 274.51 319.166 274.791C319.612 275.072 319.958 275.467 320.206 275.976C320.456 276.484 320.581 277.08 320.581 277.761C320.581 278.437 320.456 279.028 320.206 279.534C319.958 280.04 319.612 280.433 319.166 280.714C318.723 280.996 318.206 281.136 317.615 281.136ZM317.615 280.233C318.064 280.233 318.433 280.118 318.723 279.888C319.012 279.658 319.227 279.355 319.366 278.98C319.505 278.605 319.575 278.199 319.575 277.761C319.575 277.324 319.505 276.916 319.366 276.538C319.227 276.161 319.012 275.855 318.723 275.622C318.433 275.389 318.064 275.273 317.615 275.273C317.166 275.273 316.797 275.389 316.507 275.622C316.217 275.855 316.002 276.161 315.863 276.538C315.724 276.916 315.654 277.324 315.654 277.761C315.654 278.199 315.724 278.605 315.863 278.98C316.002 279.355 316.217 279.658 316.507 279.888C316.797 280.118 317.166 280.233 317.615 280.233Z" fill="black"/>
<ellipse cx="141.5" cy="276" rx="19.5" ry="19" fill="#D9D9D9"/>
<path d="M160.5 276C160.5 286.205 152.006 294.5 141.5 294.5C130.994 294.5 122.5 286.205 122.5 276C122.5 265.795 130.994 257.5 141.5 257.5C152.006 257.5 160.5 265.795 160.5 276Z" fill="white" stroke="black"/>
<path d="M38.5 276C38.5 286.205 30.0057 294.5 19.5 294.5C8.99427 294.5 0.5 286.205 0.5 276C0.5 265.795 8.99427 257.5 19.5 257.5C30.0057 257.5 38.5 265.795 38.5 276Z" fill="white" stroke="black"/>
<path d="M81.0037 143.915C80.9565 144.465 81.3643 144.949 81.9146 144.996L90.8817 145.765C91.432 145.812 91.9163 145.404 91.9635 144.854C92.0106 144.304 91.6028 143.819 91.0525 143.772L83.0817 143.089L83.765 135.118C83.8121 134.568 83.4043 134.084 82.854 134.037C82.3037 133.989 81.8194 134.397 81.7723 134.947L81.0037 143.915ZM119.356 111.235L81.3559 143.235L82.6441 144.765L120.644 112.765L119.356 111.235Z" fill="black"/>
<path d="M363.984 145C364.536 145.009 364.991 144.568 365 144.016L365.143 135.017C365.151 134.465 364.711 134.01 364.159 134.001C363.606 133.992 363.152 134.433 363.143 134.985L363.016 142.984L355.017 142.857C354.465 142.849 354.01 143.289 354.001 143.841C353.992 144.394 354.433 144.848 354.985 144.857L363.984 145ZM332.282 112.696L363.282 144.696L364.718 143.304L333.718 111.304L332.282 112.696Z" fill="black"/>
<path d="M49.0041 214.909C48.9541 215.459 49.3595 215.946 49.9095 215.996L58.8725 216.811C59.4225 216.861 59.9089 216.455 59.9589 215.905C60.0089 215.355 59.6036 214.869 59.0536 214.819L51.0864 214.095L51.8107 206.127C51.8607 205.577 51.4554 205.091 50.9054 205.041C50.3553 204.991 49.8689 205.396 49.8189 205.946L49.0041 214.909ZM79.3598 189.232L49.3598 214.232L50.6402 215.768L80.6402 190.768L79.3598 189.232Z" fill="black"/>
<path d="M344.004 214.909C343.954 215.459 344.359 215.946 344.909 215.996L353.873 216.811C354.423 216.861 354.909 216.455 354.959 215.905C355.009 215.355 354.604 214.869 354.054 214.819L346.086 214.095L346.811 206.127C346.861 205.577 346.455 205.091 345.905 205.041C345.355 204.991 344.869 205.396 344.819 205.946L344.004 214.909ZM374.36 189.232L344.36 214.232L345.64 215.768L375.64 190.768L374.36 189.232Z" fill="black"/>
<path d="M22.0415 256.285C22.1988 256.814 22.7556 257.116 23.285 256.959L31.9118 254.394C32.4412 254.236 32.7427 253.68 32.5854 253.15C32.428 252.621 31.8712 252.319 31.3419 252.477L23.6736 254.756L21.3938 247.088C21.2364 246.559 20.6797 246.257 20.1503 246.415C19.6209 246.572 19.3193 247.129 19.4767 247.658L22.0415 256.285ZM35.1207 231.524L22.1207 255.524L23.8793 256.476L36.8793 232.476L35.1207 231.524Z" fill="black"/>
<path d="M320.041 256.285C320.199 256.814 320.756 257.116 321.285 256.959L329.912 254.394C330.441 254.236 330.743 253.68 330.585 253.15C330.428 252.621 329.871 252.319 329.342 252.477L321.674 254.756L319.394 247.088C319.236 246.559 318.68 246.257 318.15 246.415C317.621 246.572 317.319 247.129 317.477 247.658L320.041 256.285ZM333.121 231.524L320.121 255.524L321.879 256.476L334.879 232.476L333.121 231.524Z" fill="black"/>
<path d="M109.074 215.997C109.625 215.956 110.038 215.477 109.997 214.926L109.332 205.951C109.292 205.4 108.812 204.987 108.261 205.027C107.711 205.068 107.297 205.548 107.338 206.098L107.929 214.077L99.9507 214.668C99.3999 214.708 98.9865 215.188 99.0273 215.739C99.0681 216.289 99.5477 216.703 100.098 216.662L109.074 215.997ZM79.3471 190.757L108.347 215.757L109.653 214.243L80.6529 189.243L79.3471 190.757Z" fill="black"/>
<path d="M404.074 215.997C404.625 215.956 405.038 215.477 404.997 214.926L404.332 205.951C404.292 205.4 403.812 204.987 403.261 205.027C402.711 205.068 402.297 205.548 402.338 206.098L402.929 214.077L394.951 214.668C394.4 214.708 393.987 215.188 394.027 215.739C394.068 216.289 394.548 216.703 395.098 216.662L404.074 215.997ZM374.347 190.757L403.347 215.757L404.653 214.243L375.653 189.243L374.347 190.757Z" fill="black"/>
<path d="M136.852 256.989C137.398 257.071 137.907 256.695 137.989 256.148L139.324 247.248C139.406 246.702 139.03 246.193 138.483 246.111C137.937 246.029 137.428 246.405 137.346 246.951L136.159 254.863L128.248 253.676C127.702 253.594 127.193 253.97 127.111 254.517C127.029 255.063 127.405 255.572 127.951 255.654L136.852 256.989ZM119.196 233.594L136.196 256.594L137.804 255.406L120.804 232.406L119.196 233.594Z" fill="black"/>
<path d="M427.852 255.989C428.398 256.071 428.907 255.695 428.989 255.148L430.324 246.248C430.406 245.702 430.03 245.193 429.483 245.111C428.937 245.029 428.428 245.405 428.346 245.951L427.159 253.863L419.248 252.676C418.702 252.594 418.193 252.97 418.111 253.517C418.029 254.063 418.405 254.572 418.951 254.654L427.852 255.989ZM410.196 232.594L427.196 255.594L428.804 254.406L411.804 231.406L410.196 232.594Z" fill="black"/>
<path d="M131.307 271.273H132.517L134.938 275.347H135.04L137.46 271.273H138.67L135.517 276.403V280H134.46V276.403L131.307 271.273ZM141.719 280.136C141.089 280.136 140.545 279.997 140.087 279.719C139.633 279.438 139.282 279.045 139.035 278.543C138.79 278.037 138.668 277.449 138.668 276.778C138.668 276.108 138.79 275.517 139.035 275.006C139.282 274.491 139.626 274.091 140.066 273.804C140.509 273.514 141.026 273.369 141.617 273.369C141.958 273.369 142.295 273.426 142.627 273.54C142.96 273.653 143.262 273.838 143.535 274.094C143.808 274.347 144.025 274.682 144.187 275.099C144.349 275.517 144.43 276.031 144.43 276.642V277.068H139.384V276.199H143.407C143.407 275.83 143.333 275.5 143.185 275.21C143.04 274.92 142.833 274.692 142.563 274.524C142.296 274.357 141.981 274.273 141.617 274.273C141.217 274.273 140.87 274.372 140.577 274.571C140.288 274.767 140.065 275.023 139.908 275.338C139.752 275.653 139.674 275.991 139.674 276.352V276.932C139.674 277.426 139.759 277.845 139.93 278.189C140.103 278.53 140.343 278.79 140.65 278.969C140.957 279.145 141.313 279.233 141.719 279.233C141.984 279.233 142.222 279.196 142.435 279.122C142.651 279.045 142.837 278.932 142.994 278.781C143.15 278.628 143.271 278.437 143.356 278.21L144.327 278.483C144.225 278.812 144.053 279.102 143.812 279.352C143.57 279.599 143.272 279.793 142.917 279.932C142.562 280.068 142.163 280.136 141.719 280.136ZM150.596 274.92L149.692 275.176C149.636 275.026 149.552 274.879 149.441 274.737C149.333 274.592 149.185 274.473 148.998 274.379C148.81 274.286 148.57 274.239 148.278 274.239C147.877 274.239 147.543 274.331 147.276 274.516C147.012 274.697 146.88 274.929 146.88 275.21C146.88 275.46 146.971 275.658 147.153 275.803C147.335 275.947 147.619 276.068 148.005 276.165L148.977 276.403C149.562 276.545 149.998 276.763 150.285 277.055C150.572 277.345 150.715 277.719 150.715 278.176C150.715 278.551 150.607 278.886 150.391 279.182C150.178 279.477 149.88 279.71 149.496 279.881C149.113 280.051 148.667 280.136 148.158 280.136C147.491 280.136 146.938 279.991 146.501 279.702C146.063 279.412 145.786 278.989 145.67 278.432L146.624 278.193C146.715 278.545 146.887 278.81 147.14 278.986C147.396 279.162 147.729 279.25 148.141 279.25C148.61 279.25 148.982 279.151 149.258 278.952C149.536 278.75 149.675 278.509 149.675 278.227C149.675 278 149.596 277.81 149.437 277.656C149.278 277.5 149.033 277.384 148.704 277.307L147.613 277.051C147.013 276.909 146.573 276.689 146.292 276.391C146.013 276.089 145.874 275.713 145.874 275.261C145.874 274.892 145.978 274.565 146.185 274.281C146.396 273.997 146.681 273.774 147.042 273.612C147.406 273.45 147.817 273.369 148.278 273.369C148.925 273.369 149.434 273.511 149.803 273.795C150.175 274.08 150.44 274.455 150.596 274.92Z" fill="black"/>
<path d="M426.307 272.273H427.517L429.938 276.347H430.04L432.46 272.273H433.67L430.517 277.403V281H429.46V277.403L426.307 272.273ZM436.719 281.136C436.089 281.136 435.545 280.997 435.087 280.719C434.633 280.438 434.282 280.045 434.035 279.543C433.79 279.037 433.668 278.449 433.668 277.778C433.668 277.108 433.79 276.517 434.035 276.006C434.282 275.491 434.626 275.091 435.066 274.804C435.509 274.514 436.026 274.369 436.617 274.369C436.958 274.369 437.295 274.426 437.627 274.54C437.96 274.653 438.262 274.838 438.535 275.094C438.808 275.347 439.025 275.682 439.187 276.099C439.349 276.517 439.43 277.031 439.43 277.642V278.068H434.384V277.199H438.407C438.407 276.83 438.333 276.5 438.185 276.21C438.04 275.92 437.833 275.692 437.563 275.524C437.296 275.357 436.981 275.273 436.617 275.273C436.217 275.273 435.87 275.372 435.577 275.571C435.288 275.767 435.065 276.023 434.908 276.338C434.752 276.653 434.674 276.991 434.674 277.352V277.932C434.674 278.426 434.759 278.845 434.93 279.189C435.103 279.53 435.343 279.79 435.65 279.969C435.957 280.145 436.313 280.233 436.719 280.233C436.984 280.233 437.222 280.196 437.435 280.122C437.651 280.045 437.837 279.932 437.994 279.781C438.15 279.628 438.271 279.437 438.356 279.21L439.327 279.483C439.225 279.812 439.053 280.102 438.812 280.352C438.57 280.599 438.272 280.793 437.917 280.932C437.562 281.068 437.163 281.136 436.719 281.136ZM445.596 275.92L444.692 276.176C444.636 276.026 444.552 275.879 444.441 275.737C444.333 275.592 444.185 275.473 443.998 275.379C443.81 275.286 443.57 275.239 443.278 275.239C442.877 275.239 442.543 275.331 442.276 275.516C442.012 275.697 441.88 275.929 441.88 276.21C441.88 276.46 441.971 276.658 442.153 276.803C442.335 276.947 442.619 277.068 443.005 277.165L443.977 277.403C444.562 277.545 444.998 277.763 445.285 278.055C445.572 278.345 445.715 278.719 445.715 279.176C445.715 279.551 445.607 279.886 445.391 280.182C445.178 280.477 444.88 280.71 444.496 280.881C444.113 281.051 443.667 281.136 443.158 281.136C442.491 281.136 441.938 280.991 441.501 280.702C441.063 280.412 440.786 279.989 440.67 279.432L441.624 279.193C441.715 279.545 441.887 279.81 442.14 279.986C442.396 280.162 442.729 280.25 443.141 280.25C443.61 280.25 443.982 280.151 444.258 279.952C444.536 279.75 444.675 279.509 444.675 279.227C444.675 279 444.596 278.81 444.437 278.656C444.278 278.5 444.033 278.384 443.704 278.307L442.613 278.051C442.013 277.909 441.573 277.689 441.292 277.391C441.013 277.089 440.874 276.713 440.874 276.261C440.874 275.892 440.978 275.565 441.185 275.281C441.396 274.997 441.681 274.774 442.042 274.612C442.406 274.45 442.817 274.369 443.278 274.369C443.925 274.369 444.434 274.511 444.803 274.795C445.175 275.08 445.44 275.455 445.596 275.92Z" fill="black"/>
<path d="M19.9773 271.273V280H18.9545L14.1989 273.148H14.1136V280H13.0568V271.273H14.0795L18.8523 278.142H18.9375V271.273H19.9773ZM24.6147 280.136C24.0238 280.136 23.5053 279.996 23.0593 279.714C22.6161 279.433 22.2695 279.04 22.0195 278.534C21.7724 278.028 21.6488 277.437 21.6488 276.761C21.6488 276.08 21.7724 275.484 22.0195 274.976C22.2695 274.467 22.6161 274.072 23.0593 273.791C23.5053 273.51 24.0238 273.369 24.6147 273.369C25.2056 273.369 25.7227 273.51 26.1658 273.791C26.6119 274.072 26.9585 274.467 27.2056 274.976C27.4556 275.484 27.5806 276.08 27.5806 276.761C27.5806 277.437 27.4556 278.028 27.2056 278.534C26.9585 279.04 26.6119 279.433 26.1658 279.714C25.7227 279.996 25.2056 280.136 24.6147 280.136ZM24.6147 279.233C25.0636 279.233 25.4329 279.118 25.7227 278.888C26.0124 278.658 26.2269 278.355 26.3661 277.98C26.5053 277.605 26.5749 277.199 26.5749 276.761C26.5749 276.324 26.5053 275.916 26.3661 275.538C26.2269 275.161 26.0124 274.855 25.7227 274.622C25.4329 274.389 25.0636 274.273 24.6147 274.273C24.1658 274.273 23.7965 274.389 23.5067 274.622C23.217 274.855 23.0025 275.161 22.8633 275.538C22.7241 275.916 22.6545 276.324 22.6545 276.761C22.6545 277.199 22.7241 277.605 22.8633 277.98C23.0025 278.355 23.217 278.658 23.5067 278.888C23.7965 279.118 24.1658 279.233 24.6147 279.233Z" fill="black"/>
<path d="M208.972 3.27273V12H207.915V4.38068H207.864L205.733 5.79545V4.72159L207.915 3.27273H208.972ZM212.483 10.8068L212.415 11.267C212.366 11.5909 212.293 11.9375 212.193 12.3068C212.097 12.6761 211.996 13.0241 211.891 13.3509C211.786 13.6776 211.699 13.9375 211.631 14.1307H210.864C210.901 13.9489 210.949 13.7088 211.009 13.4105C211.068 13.1122 211.128 12.7784 211.188 12.4091C211.25 12.0426 211.301 11.6676 211.341 11.2841L211.392 10.8068H212.483ZM214.329 12V11.233L217.21 8.07955C217.548 7.71023 217.826 7.3892 218.045 7.11648C218.264 6.84091 218.426 6.58239 218.531 6.34091C218.639 6.09659 218.693 5.84091 218.693 5.57386C218.693 5.26705 218.619 5.00142 218.471 4.77699C218.326 4.55256 218.127 4.37926 217.875 4.2571C217.622 4.13494 217.338 4.07386 217.022 4.07386C216.687 4.07386 216.395 4.14347 216.145 4.28267C215.897 4.41903 215.706 4.6108 215.569 4.85795C215.436 5.10511 215.369 5.39489 215.369 5.72727H214.363C214.363 5.21591 214.481 4.76705 214.717 4.38068C214.953 3.99432 215.274 3.69318 215.68 3.47727C216.089 3.26136 216.548 3.15341 217.056 3.15341C217.568 3.15341 218.021 3.26136 218.416 3.47727C218.811 3.69318 219.12 3.98437 219.345 4.35085C219.569 4.71733 219.681 5.125 219.681 5.57386C219.681 5.89489 219.623 6.20881 219.507 6.51562C219.393 6.8196 219.194 7.15909 218.91 7.53409C218.629 7.90625 218.238 8.3608 217.738 8.89773L215.778 10.9943V11.0625H219.835V12H214.329ZM223.112 10.8068L223.044 11.267C222.995 11.5909 222.922 11.9375 222.822 12.3068C222.725 12.6761 222.625 13.0241 222.52 13.3509C222.414 13.6776 222.328 13.9375 222.26 14.1307H221.493C221.529 13.9489 221.578 13.7088 221.637 13.4105C221.697 13.1122 221.757 12.7784 221.816 12.4091C221.879 12.0426 221.93 11.6676 221.97 11.2841L222.021 10.8068H223.112ZM225.708 12.0682C225.498 12.0682 225.317 11.9929 225.167 11.8423C225.016 11.6918 224.941 11.5114 224.941 11.3011C224.941 11.0909 225.016 10.9105 225.167 10.7599C225.317 10.6094 225.498 10.5341 225.708 10.5341C225.918 10.5341 226.099 10.6094 226.249 10.7599C226.4 10.9105 226.475 11.0909 226.475 11.3011C226.475 11.4403 226.44 11.5682 226.369 11.6847C226.3 11.8011 226.208 11.8949 226.092 11.9659C225.978 12.0341 225.85 12.0682 225.708 12.0682ZM229.013 12.0682C228.803 12.0682 228.622 11.9929 228.472 11.8423C228.321 11.6918 228.246 11.5114 228.246 11.3011C228.246 11.0909 228.321 10.9105 228.472 10.7599C228.622 10.6094 228.803 10.5341 229.013 10.5341C229.223 10.5341 229.403 10.6094 229.554 10.7599C229.705 10.9105 229.78 11.0909 229.78 11.3011C229.78 11.4403 229.744 11.5682 229.673 11.6847C229.605 11.8011 229.513 11.8949 229.396 11.9659C229.283 12.0341 229.155 12.0682 229.013 12.0682ZM232.317 12.0682C232.107 12.0682 231.927 11.9929 231.776 11.8423C231.626 11.6918 231.55 11.5114 231.55 11.3011C231.55 11.0909 231.626 10.9105 231.776 10.7599C231.927 10.6094 232.107 10.5341 232.317 10.5341C232.528 10.5341 232.708 10.6094 232.859 10.7599C233.009 10.9105 233.085 11.0909 233.085 11.3011C233.085 11.4403 233.049 11.5682 232.978 11.6847C232.91 11.8011 232.817 11.8949 232.701 11.9659C232.587 12.0341 232.46 12.0682 232.317 12.0682ZM236.389 10.8068L236.321 11.267C236.273 11.5909 236.199 11.9375 236.099 12.3068C236.003 12.6761 235.902 13.0241 235.797 13.3509C235.692 13.6776 235.605 13.9375 235.537 14.1307H234.77C234.807 13.9489 234.855 13.7088 234.915 13.4105C234.974 13.1122 235.034 12.7784 235.094 12.4091C235.156 12.0426 235.207 11.6676 235.247 11.2841L235.298 10.8068H236.389ZM240.261 3.27273V12H239.204V4.38068H239.153L237.022 5.79545V4.72159L239.204 3.27273H240.261ZM242.566 10.2102V9.34091L246.401 3.27273H247.032V4.61932H246.606L243.708 9.20455V9.27273H248.873V10.2102H242.566ZM246.674 12V9.94602V9.54119V3.27273H247.68V12H246.674Z" fill="black"/>
<path d="M76.9716 77.2727V86H75.9148V78.3807H75.8636L73.733 79.7955V78.7216L75.9148 77.2727H76.9716ZM80.483 84.8068L80.4148 85.267C80.3665 85.5909 80.2926 85.9375 80.1932 86.3068C80.0966 86.6761 79.9957 87.0241 79.8906 87.3509C79.7855 87.6776 79.6989 87.9375 79.6307 88.1307H78.8636C78.9006 87.9489 78.9489 87.7088 79.0085 87.4105C79.0682 87.1122 79.1278 86.7784 79.1875 86.4091C79.25 86.0426 79.3011 85.6676 79.3409 85.2841L79.392 84.8068H80.483ZM82.3292 86V85.233L85.2099 82.0795C85.5479 81.7102 85.8263 81.3892 86.0451 81.1165C86.2638 80.8409 86.4258 80.5824 86.5309 80.3409C86.6388 80.0966 86.6928 79.8409 86.6928 79.5739C86.6928 79.267 86.619 79.0014 86.4712 78.777C86.3263 78.5526 86.1275 78.3793 85.8746 78.2571C85.6218 78.1349 85.3377 78.0739 85.0224 78.0739C84.6871 78.0739 84.3945 78.1435 84.1445 78.2827C83.8974 78.419 83.7056 78.6108 83.5692 78.858C83.4357 79.1051 83.369 79.3949 83.369 79.7273H82.3633C82.3633 79.2159 82.4812 78.767 82.717 78.3807C82.9528 77.9943 83.2738 77.6932 83.68 77.4773C84.0891 77.2614 84.5479 77.1534 85.0565 77.1534C85.5678 77.1534 86.021 77.2614 86.4158 77.4773C86.8107 77.6932 87.1204 77.9844 87.3448 78.3509C87.5692 78.7173 87.6815 79.125 87.6815 79.5739C87.6815 79.8949 87.6232 80.2088 87.5067 80.5156C87.3931 80.8196 87.1942 81.1591 86.9102 81.5341C86.6289 81.9062 86.2383 82.3608 85.7383 82.8977L83.7781 84.9943V85.0625H87.8349V86H82.3292ZM91.1119 84.8068L91.0437 85.267C90.9954 85.5909 90.9215 85.9375 90.8221 86.3068C90.7255 86.6761 90.6246 87.0241 90.5195 87.3509C90.4144 87.6776 90.3278 87.9375 90.2596 88.1307H89.4925C89.5295 87.9489 89.5778 87.7088 89.6374 87.4105C89.6971 87.1122 89.7567 86.7784 89.8164 86.4091C89.8789 86.0426 89.93 85.6676 89.9698 85.2841L90.021 84.8068H91.1119ZM95.484 86.1193C94.8988 86.1193 94.3817 86.0156 93.9329 85.8082C93.4869 85.598 93.1388 85.3097 92.8888 84.9432C92.6388 84.5739 92.5153 84.1534 92.5181 83.6818C92.5153 83.3125 92.5877 82.9716 92.7354 82.6591C92.8832 82.3437 93.0849 82.081 93.3406 81.8707C93.5991 81.6577 93.8874 81.5227 94.2056 81.4659V81.4148C93.788 81.3068 93.4556 81.0724 93.2085 80.7116C92.9613 80.348 92.8391 79.9347 92.842 79.4716C92.8391 79.0284 92.9513 78.6321 93.1786 78.2827C93.4059 77.9332 93.7184 77.6577 94.1161 77.456C94.5167 77.2543 94.9727 77.1534 95.484 77.1534C95.9897 77.1534 96.4414 77.2543 96.8391 77.456C97.2369 77.6577 97.5494 77.9332 97.7766 78.2827C98.0067 78.6321 98.1232 79.0284 98.1261 79.4716C98.1232 79.9347 97.9968 80.348 97.7468 80.7116C97.4996 81.0724 97.1715 81.3068 96.7624 81.4148V81.4659C97.0778 81.5227 97.3619 81.6577 97.6147 81.8707C97.8675 82.081 98.0692 82.3437 98.2198 82.6591C98.3704 82.9716 98.4471 83.3125 98.4499 83.6818C98.4471 84.1534 98.3192 84.5739 98.0664 84.9432C97.8164 85.3097 97.4684 85.598 97.0224 85.8082C96.5792 86.0156 96.0664 86.1193 95.484 86.1193ZM95.484 85.1818C95.8789 85.1818 96.2198 85.1179 96.5067 84.9901C96.7937 84.8622 97.0153 84.6818 97.1715 84.4489C97.3278 84.2159 97.4073 83.9432 97.4102 83.6307C97.4073 83.3011 97.3221 83.0099 97.1545 82.7571C96.9869 82.5043 96.7582 82.3054 96.4684 82.1605C96.1815 82.0156 95.8533 81.9432 95.484 81.9432C95.1119 81.9432 94.7795 82.0156 94.4869 82.1605C94.1971 82.3054 93.9684 82.5043 93.8008 82.7571C93.636 83.0099 93.555 83.3011 93.5579 83.6307C93.555 83.9432 93.6303 84.2159 93.7837 84.4489C93.94 84.6818 94.163 84.8622 94.4528 84.9901C94.7425 85.1179 95.0863 85.1818 95.484 85.1818ZM95.484 81.0398C95.7965 81.0398 96.0735 80.9773 96.315 80.8523C96.5593 80.7273 96.7511 80.5526 96.8903 80.3281C97.0295 80.1037 97.1005 79.8409 97.1033 79.5398C97.1005 79.2443 97.0309 78.9872 96.8945 78.7685C96.7582 78.5469 96.5692 78.3764 96.3278 78.2571C96.0863 78.1349 95.805 78.0739 95.484 78.0739C95.1573 78.0739 94.8718 78.1349 94.6275 78.2571C94.3832 78.3764 94.1942 78.5469 94.0607 78.7685C93.9272 78.9872 93.8619 79.2443 93.8647 79.5398C93.8619 79.8409 93.9286 80.1037 94.065 80.3281C94.2042 80.5526 94.396 80.7273 94.6403 80.8523C94.8846 80.9773 95.1658 81.0398 95.484 81.0398ZM101.331 84.8068L101.262 85.267C101.214 85.5909 101.14 85.9375 101.041 86.3068C100.944 86.6761 100.843 87.0241 100.738 87.3509C100.633 87.6776 100.547 87.9375 100.478 88.1307H99.7113C99.7482 87.9489 99.7965 87.7088 99.8562 87.4105C99.9158 87.1122 99.9755 86.7784 100.035 86.4091C100.098 86.0426 100.149 85.6676 100.189 85.2841L100.24 84.8068H101.331ZM105.873 77.1534C106.231 77.1562 106.589 77.2244 106.947 77.358C107.305 77.4915 107.632 77.7131 107.927 78.0227C108.223 78.3295 108.46 78.7486 108.639 79.2798C108.818 79.8111 108.907 80.4773 108.907 81.2784C108.907 82.054 108.833 82.7429 108.686 83.3452C108.541 83.9446 108.331 84.4503 108.055 84.8622C107.782 85.2741 107.45 85.5866 107.058 85.7997C106.669 86.0128 106.228 86.1193 105.737 86.1193C105.248 86.1193 104.812 86.0227 104.429 85.8295C104.048 85.6335 103.735 85.3622 103.491 85.0156C103.25 84.6662 103.095 84.2614 103.027 83.8011H104.066C104.16 84.2017 104.346 84.5327 104.625 84.794C104.906 85.0526 105.277 85.1818 105.737 85.1818C106.41 85.1818 106.941 84.8878 107.331 84.2997C107.723 83.7116 107.919 82.8807 107.919 81.8068H107.85C107.691 82.0455 107.502 82.2514 107.284 82.4247C107.065 82.598 106.822 82.7315 106.555 82.8253C106.288 82.919 106.004 82.9659 105.703 82.9659C105.203 82.9659 104.744 82.8423 104.326 82.5952C103.912 82.3452 103.579 82.0028 103.329 81.5682C103.082 81.1307 102.958 80.6307 102.958 80.0682C102.958 79.5341 103.078 79.0455 103.316 78.6023C103.558 78.1562 103.896 77.8011 104.331 77.5369C104.768 77.2727 105.282 77.1449 105.873 77.1534ZM105.873 78.0909C105.515 78.0909 105.193 78.1804 104.906 78.3594C104.622 78.5355 104.396 78.7741 104.228 79.0753C104.064 79.3736 103.981 79.7045 103.981 80.0682C103.981 80.4318 104.061 80.7628 104.22 81.0611C104.382 81.3565 104.602 81.5923 104.88 81.7685C105.162 81.9418 105.481 82.0284 105.839 82.0284C106.109 82.0284 106.36 81.9759 106.593 81.8707C106.826 81.7628 107.029 81.6165 107.203 81.4318C107.379 81.2443 107.517 81.0327 107.616 80.7969C107.716 80.5582 107.765 80.3097 107.765 80.0511C107.765 79.7102 107.683 79.3906 107.518 79.0923C107.356 78.794 107.132 78.5526 106.845 78.3679C106.561 78.1832 106.237 78.0909 105.873 78.0909ZM111.795 84.8068L111.727 85.267C111.679 85.5909 111.605 85.9375 111.506 86.3068C111.409 86.6761 111.308 87.0241 111.203 87.3509C111.098 87.6776 111.011 87.9375 110.943 88.1307H110.176C110.213 87.9489 110.261 87.7088 110.321 87.4105C110.381 87.1122 110.44 86.7784 110.5 86.4091C110.562 86.0426 110.614 85.6676 110.653 85.2841L110.705 84.8068H111.795ZM115.667 77.2727V86H114.61V78.3807H114.559L112.428 79.7955V78.7216L114.61 77.2727H115.667ZM121.245 77.2727V86H120.188V78.3807H120.137L118.006 79.7955V78.7216L120.188 77.2727H121.245Z" fill="black"/>
<path d="M9.97159 307.273V316H8.91477V308.381H8.86364L6.73295 309.795V308.722L8.91477 307.273H9.97159ZM13.483 314.807L13.4148 315.267C13.3665 315.591 13.2926 315.938 13.1932 316.307C13.0966 316.676 12.9957 317.024 12.8906 317.351C12.7855 317.678 12.6989 317.938 12.6307 318.131H11.8636C11.9006 317.949 11.9489 317.709 12.0085 317.411C12.0682 317.112 12.1278 316.778 12.1875 316.409C12.25 316.043 12.3011 315.668 12.3409 315.284L12.392 314.807H13.483ZM15.3292 316V315.233L18.2099 312.08C18.5479 311.71 18.8263 311.389 19.0451 311.116C19.2638 310.841 19.4258 310.582 19.5309 310.341C19.6388 310.097 19.6928 309.841 19.6928 309.574C19.6928 309.267 19.619 309.001 19.4712 308.777C19.3263 308.553 19.1275 308.379 18.8746 308.257C18.6218 308.135 18.3377 308.074 18.0224 308.074C17.6871 308.074 17.3945 308.143 17.1445 308.283C16.8974 308.419 16.7056 308.611 16.5692 308.858C16.4357 309.105 16.369 309.395 16.369 309.727H15.3633C15.3633 309.216 15.4812 308.767 15.717 308.381C15.9528 307.994 16.2738 307.693 16.68 307.477C17.0891 307.261 17.5479 307.153 18.0565 307.153C18.5678 307.153 19.021 307.261 19.4158 307.477C19.8107 307.693 20.1204 307.984 20.3448 308.351C20.5692 308.717 20.6815 309.125 20.6815 309.574C20.6815 309.895 20.6232 310.209 20.5067 310.516C20.3931 310.82 20.1942 311.159 19.9102 311.534C19.6289 311.906 19.2383 312.361 18.7383 312.898L16.7781 314.994V315.062H20.8349V316H15.3292ZM24.1119 314.807L24.0437 315.267C23.9954 315.591 23.9215 315.938 23.8221 316.307C23.7255 316.676 23.6246 317.024 23.5195 317.351C23.4144 317.678 23.3278 317.938 23.2596 318.131H22.4925C22.5295 317.949 22.5778 317.709 22.6374 317.411C22.6971 317.112 22.7567 316.778 22.8164 316.409C22.8789 316.043 22.93 315.668 22.9698 315.284L23.021 314.807H24.1119ZM28.484 316.119C27.8988 316.119 27.3817 316.016 26.9329 315.808C26.4869 315.598 26.1388 315.31 25.8888 314.943C25.6388 314.574 25.5153 314.153 25.5181 313.682C25.5153 313.312 25.5877 312.972 25.7354 312.659C25.8832 312.344 26.0849 312.081 26.3406 311.871C26.5991 311.658 26.8874 311.523 27.2056 311.466V311.415C26.788 311.307 26.4556 311.072 26.2085 310.712C25.9613 310.348 25.8391 309.935 25.842 309.472C25.8391 309.028 25.9513 308.632 26.1786 308.283C26.4059 307.933 26.7184 307.658 27.1161 307.456C27.5167 307.254 27.9727 307.153 28.484 307.153C28.9897 307.153 29.4414 307.254 29.8391 307.456C30.2369 307.658 30.5494 307.933 30.7766 308.283C31.0067 308.632 31.1232 309.028 31.1261 309.472C31.1232 309.935 30.9968 310.348 30.7468 310.712C30.4996 311.072 30.1715 311.307 29.7624 311.415V311.466C30.0778 311.523 30.3619 311.658 30.6147 311.871C30.8675 312.081 31.0692 312.344 31.2198 312.659C31.3704 312.972 31.4471 313.312 31.4499 313.682C31.4471 314.153 31.3192 314.574 31.0664 314.943C30.8164 315.31 30.4684 315.598 30.0224 315.808C29.5792 316.016 29.0664 316.119 28.484 316.119ZM28.484 315.182C28.8789 315.182 29.2198 315.118 29.5067 314.99C29.7937 314.862 30.0153 314.682 30.1715 314.449C30.3278 314.216 30.4073 313.943 30.4102 313.631C30.4073 313.301 30.3221 313.01 30.1545 312.757C29.9869 312.504 29.7582 312.305 29.4684 312.161C29.1815 312.016 28.8533 311.943 28.484 311.943C28.1119 311.943 27.7795 312.016 27.4869 312.161C27.1971 312.305 26.9684 312.504 26.8008 312.757C26.636 313.01 26.555 313.301 26.5579 313.631C26.555 313.943 26.6303 314.216 26.7837 314.449C26.94 314.682 27.163 314.862 27.4528 314.99C27.7425 315.118 28.0863 315.182 28.484 315.182ZM28.484 311.04C28.7965 311.04 29.0735 310.977 29.315 310.852C29.5593 310.727 29.7511 310.553 29.8903 310.328C30.0295 310.104 30.1005 309.841 30.1033 309.54C30.1005 309.244 30.0309 308.987 29.8945 308.768C29.7582 308.547 29.5692 308.376 29.3278 308.257C29.0863 308.135 28.805 308.074 28.484 308.074C28.1573 308.074 27.8718 308.135 27.6275 308.257C27.3832 308.376 27.1942 308.547 27.0607 308.768C26.9272 308.987 26.8619 309.244 26.8647 309.54C26.8619 309.841 26.9286 310.104 27.065 310.328C27.2042 310.553 27.396 310.727 27.6403 310.852C27.8846 310.977 28.1658 311.04 28.484 311.04Z" fill="black"/>
<path d="M132.682 307.153C133.04 307.156 133.398 307.224 133.756 307.358C134.114 307.491 134.44 307.713 134.736 308.023C135.031 308.33 135.268 308.749 135.447 309.28C135.626 309.811 135.716 310.477 135.716 311.278C135.716 312.054 135.642 312.743 135.494 313.345C135.349 313.945 135.139 314.45 134.864 314.862C134.591 315.274 134.259 315.587 133.866 315.8C133.477 316.013 133.037 316.119 132.545 316.119C132.057 316.119 131.621 316.023 131.237 315.83C130.857 315.634 130.544 315.362 130.3 315.016C130.058 314.666 129.903 314.261 129.835 313.801H130.875C130.969 314.202 131.155 314.533 131.433 314.794C131.714 315.053 132.085 315.182 132.545 315.182C133.219 315.182 133.75 314.888 134.139 314.3C134.531 313.712 134.727 312.881 134.727 311.807H134.659C134.5 312.045 134.311 312.251 134.092 312.425C133.874 312.598 133.631 312.732 133.364 312.825C133.097 312.919 132.813 312.966 132.511 312.966C132.011 312.966 131.553 312.842 131.135 312.595C130.72 312.345 130.388 312.003 130.138 311.568C129.891 311.131 129.767 310.631 129.767 310.068C129.767 309.534 129.886 309.045 130.125 308.602C130.366 308.156 130.705 307.801 131.139 307.537C131.577 307.273 132.091 307.145 132.682 307.153ZM132.682 308.091C132.324 308.091 132.001 308.18 131.714 308.359C131.43 308.536 131.205 308.774 131.037 309.075C130.872 309.374 130.79 309.705 130.79 310.068C130.79 310.432 130.869 310.763 131.028 311.061C131.19 311.357 131.411 311.592 131.689 311.768C131.97 311.942 132.29 312.028 132.648 312.028C132.918 312.028 133.169 311.976 133.402 311.871C133.635 311.763 133.838 311.616 134.011 311.432C134.188 311.244 134.325 311.033 134.425 310.797C134.524 310.558 134.574 310.31 134.574 310.051C134.574 309.71 134.491 309.391 134.327 309.092C134.165 308.794 133.94 308.553 133.653 308.368C133.369 308.183 133.045 308.091 132.682 308.091ZM138.604 314.807L138.536 315.267C138.488 315.591 138.414 315.938 138.314 316.307C138.218 316.676 138.117 317.024 138.012 317.351C137.907 317.678 137.82 317.938 137.752 318.131H136.985C137.022 317.949 137.07 317.709 137.13 317.411C137.189 317.112 137.249 316.778 137.309 316.409C137.371 316.043 137.422 315.668 137.462 315.284L137.513 314.807H138.604ZM142.475 307.273V316H141.419V308.381H141.368L139.237 309.795V308.722L141.419 307.273H142.475ZM148.054 307.273V316H146.997V308.381H146.946L144.815 309.795V308.722L146.997 307.273H148.054Z" fill="black"/>
<path d="M207.852 215.119C207.29 215.119 206.788 215.023 206.348 214.83C205.911 214.636 205.563 214.368 205.304 214.024C205.048 213.678 204.909 213.276 204.886 212.818H205.96C205.983 213.099 206.08 213.342 206.25 213.547C206.42 213.749 206.643 213.905 206.919 214.016C207.195 214.126 207.5 214.182 207.835 214.182C208.21 214.182 208.543 214.116 208.832 213.986C209.122 213.855 209.349 213.673 209.514 213.44C209.679 213.207 209.761 212.938 209.761 212.631C209.761 212.31 209.682 212.027 209.523 211.783C209.364 211.536 209.131 211.342 208.824 211.203C208.517 211.064 208.142 210.994 207.699 210.994H207V210.057H207.699C208.045 210.057 208.349 209.994 208.611 209.869C208.875 209.744 209.081 209.568 209.229 209.341C209.379 209.114 209.455 208.847 209.455 208.54C209.455 208.244 209.389 207.987 209.259 207.768C209.128 207.55 208.943 207.379 208.705 207.257C208.469 207.135 208.19 207.074 207.869 207.074C207.568 207.074 207.284 207.129 207.017 207.24C206.753 207.348 206.537 207.506 206.369 207.713C206.202 207.918 206.111 208.165 206.097 208.455H205.074C205.091 207.997 205.229 207.597 205.487 207.253C205.746 206.906 206.084 206.636 206.501 206.443C206.922 206.25 207.384 206.153 207.886 206.153C208.426 206.153 208.889 206.263 209.276 206.482C209.662 206.697 209.959 206.983 210.166 207.338C210.374 207.693 210.477 208.077 210.477 208.489C210.477 208.98 210.348 209.399 210.089 209.746C209.834 210.092 209.486 210.332 209.045 210.466V210.534C209.597 210.625 210.027 210.859 210.337 211.237C210.646 211.612 210.801 212.077 210.801 212.631C210.801 213.105 210.672 213.531 210.413 213.909C210.158 214.284 209.808 214.58 209.365 214.795C208.922 215.011 208.418 215.119 207.852 215.119ZM213.792 213.807L213.723 214.267C213.675 214.591 213.601 214.938 213.502 215.307C213.405 215.676 213.304 216.024 213.199 216.351C213.094 216.678 213.007 216.938 212.939 217.131H212.172C212.209 216.949 212.257 216.709 212.317 216.411C212.377 216.112 212.436 215.778 212.496 215.409C212.559 215.043 212.61 214.668 212.65 214.284L212.701 213.807H213.792ZM215.735 215L219.638 207.278V207.21H215.138V206.273H220.729V207.261L216.843 215H215.735ZM222.335 213.807L222.266 214.267C222.218 214.591 222.144 214.938 222.045 215.307C221.948 215.676 221.847 216.024 221.742 216.351C221.637 216.678 221.55 216.938 221.482 217.131H220.715C220.752 216.949 220.8 216.709 220.86 216.411C220.92 216.112 220.979 215.778 221.039 215.409C221.102 215.043 221.153 214.668 221.192 214.284L221.244 213.807H222.335ZM226.206 206.273V215H225.149V207.381H225.098L222.967 208.795V207.722L225.149 206.273H226.206ZM228.716 215V214.233L231.597 211.08C231.935 210.71 232.213 210.389 232.432 210.116C232.651 209.841 232.813 209.582 232.918 209.341C233.026 209.097 233.08 208.841 233.08 208.574C233.08 208.267 233.006 208.001 232.858 207.777C232.713 207.553 232.514 207.379 232.261 207.257C232.009 207.135 231.724 207.074 231.409 207.074C231.074 207.074 230.781 207.143 230.531 207.283C230.284 207.419 230.092 207.611 229.956 207.858C229.822 208.105 229.756 208.395 229.756 208.727H228.75C228.75 208.216 228.868 207.767 229.104 207.381C229.339 206.994 229.661 206.693 230.067 206.477C230.476 206.261 230.935 206.153 231.443 206.153C231.955 206.153 232.408 206.261 232.803 206.477C233.197 206.693 233.507 206.984 233.732 207.351C233.956 207.717 234.068 208.125 234.068 208.574C234.068 208.895 234.01 209.209 233.893 209.516C233.78 209.82 233.581 210.159 233.297 210.534C233.016 210.906 232.625 211.361 232.125 211.898L230.165 213.994V214.062H234.222V215H228.716ZM237.499 213.807L237.43 214.267C237.382 214.591 237.308 214.938 237.209 215.307C237.112 215.676 237.011 216.024 236.906 216.351C236.801 216.678 236.714 216.938 236.646 217.131H235.879C235.916 216.949 235.964 216.709 236.024 216.411C236.084 216.112 236.143 215.778 236.203 215.409C236.266 215.043 236.317 214.668 236.357 214.284L236.408 213.807H237.499ZM241.37 206.273V215H240.313V207.381H240.262L238.131 208.795V207.722L240.313 206.273H241.37ZM246.829 215.119C246.266 215.119 245.765 215.023 245.325 214.83C244.887 214.636 244.539 214.368 244.281 214.024C244.025 213.678 243.886 213.276 243.863 212.818H244.937C244.96 213.099 245.056 213.342 245.227 213.547C245.397 213.749 245.62 213.905 245.896 214.016C246.171 214.126 246.477 214.182 246.812 214.182C247.187 214.182 247.519 214.116 247.809 213.986C248.099 213.855 248.326 213.673 248.491 213.44C248.656 213.207 248.738 212.938 248.738 212.631C248.738 212.31 248.658 212.027 248.499 211.783C248.34 211.536 248.107 211.342 247.8 211.203C247.494 211.064 247.119 210.994 246.675 210.994H245.977V210.057H246.675C247.022 210.057 247.326 209.994 247.587 209.869C247.852 209.744 248.058 209.568 248.205 209.341C248.356 209.114 248.431 208.847 248.431 208.54C248.431 208.244 248.366 207.987 248.235 207.768C248.104 207.55 247.92 207.379 247.681 207.257C247.445 207.135 247.167 207.074 246.846 207.074C246.545 207.074 246.261 207.129 245.994 207.24C245.729 207.348 245.513 207.506 245.346 207.713C245.178 207.918 245.087 208.165 245.073 208.455H244.05C244.067 207.997 244.205 207.597 244.464 207.253C244.722 206.906 245.06 206.636 245.478 206.443C245.898 206.25 246.36 206.153 246.863 206.153C247.403 206.153 247.866 206.263 248.252 206.482C248.638 206.697 248.935 206.983 249.143 207.338C249.35 207.693 249.454 208.077 249.454 208.489C249.454 208.98 249.325 209.399 249.066 209.746C248.81 210.092 248.462 210.332 248.022 210.466V210.534C248.573 210.625 249.004 210.859 249.313 211.237C249.623 211.612 249.778 212.077 249.778 212.631C249.778 213.105 249.648 213.531 249.39 213.909C249.134 214.284 248.785 214.58 248.342 214.795C247.898 215.011 247.394 215.119 246.829 215.119Z" fill="black"/>
<path d="M341.699 87.2102V86.3409L345.534 80.2727H346.165V81.6193H345.739L342.841 86.2045V86.2727H348.006V87.2102H341.699ZM345.807 89V86.946V86.5412V80.2727H346.812V89H345.807ZM350.71 87.8068L350.641 88.267C350.593 88.5909 350.519 88.9375 350.42 89.3068C350.323 89.6761 350.222 90.0241 350.117 90.3509C350.012 90.6776 349.925 90.9375 349.857 91.1307H349.09C349.127 90.9489 349.175 90.7088 349.235 90.4105C349.295 90.1122 349.354 89.7784 349.414 89.4091C349.477 89.0426 349.528 88.6676 349.567 88.2841L349.619 87.8068H350.71ZM355.107 89.1193C354.607 89.1193 354.157 89.0199 353.756 88.821C353.356 88.6222 353.035 88.3494 352.793 88.0028C352.552 87.6562 352.42 87.2614 352.397 86.8182H353.42C353.46 87.2131 353.638 87.5398 353.957 87.7983C354.278 88.054 354.661 88.1818 355.107 88.1818C355.465 88.1818 355.783 88.098 356.062 87.9304C356.343 87.7628 356.563 87.5327 356.722 87.2401C356.884 86.9446 356.965 86.6108 356.965 86.2386C356.965 85.858 356.881 85.5185 356.714 85.2202C356.549 84.919 356.322 84.6818 356.032 84.5085C355.742 84.3352 355.411 84.2472 355.039 84.2443C354.772 84.2415 354.498 84.2827 354.217 84.3679C353.935 84.4503 353.704 84.5568 353.522 84.6875L352.533 84.5682L353.062 80.2727H357.596V81.2102H353.948L353.641 83.7841H353.692C353.871 83.642 354.096 83.5241 354.366 83.4304C354.636 83.3366 354.917 83.2898 355.21 83.2898C355.744 83.2898 356.219 83.4176 356.637 83.6733C357.058 83.9261 357.387 84.2727 357.626 84.7131C357.867 85.1534 357.988 85.6562 357.988 86.2216C357.988 86.7784 357.863 87.2756 357.613 87.7131C357.366 88.1477 357.025 88.4915 356.59 88.7443C356.156 88.9943 355.661 89.1193 355.107 89.1193ZM360.87 87.8068L360.801 88.267C360.753 88.5909 360.679 88.9375 360.58 89.3068C360.483 89.6761 360.382 90.0241 360.277 90.3509C360.172 90.6776 360.086 90.9375 360.017 91.1307H359.25C359.287 90.9489 359.336 90.7088 359.395 90.4105C359.455 90.1122 359.515 89.7784 359.574 89.4091C359.637 89.0426 359.688 88.6676 359.728 88.2841L359.779 87.8068H360.87ZM365.309 89.1193C364.951 89.1136 364.593 89.0455 364.235 88.9148C363.877 88.7841 363.55 88.5639 363.255 88.2543C362.96 87.9418 362.722 87.5199 362.543 86.9886C362.364 86.4545 362.275 85.7841 362.275 84.9773C362.275 84.2045 362.347 83.5199 362.492 82.9233C362.637 82.3239 362.847 81.8196 363.123 81.4105C363.398 80.9986 363.731 80.6861 364.12 80.473C364.512 80.2599 364.954 80.1534 365.445 80.1534C365.934 80.1534 366.369 80.2514 366.749 80.4474C367.133 80.6406 367.445 80.9105 367.687 81.2571C367.928 81.6037 368.085 82.0028 368.156 82.4545H367.116C367.019 82.0625 366.832 81.7372 366.553 81.4787C366.275 81.2202 365.906 81.0909 365.445 81.0909C364.769 81.0909 364.237 81.3849 363.847 81.973C363.461 82.5611 363.266 83.3864 363.263 84.4489H363.332C363.491 84.2074 363.68 84.0014 363.898 83.831C364.12 83.6577 364.364 83.5241 364.631 83.4304C364.898 83.3366 365.181 83.2898 365.479 83.2898C365.979 83.2898 366.437 83.4148 366.852 83.6648C367.266 83.9119 367.599 84.2543 367.849 84.6918C368.099 85.1264 368.224 85.625 368.224 86.1875C368.224 86.7273 368.103 87.2216 367.862 87.6705C367.62 88.1165 367.281 88.4716 366.843 88.7358C366.408 88.9972 365.897 89.125 365.309 89.1193ZM365.309 88.1818C365.667 88.1818 365.988 88.0923 366.272 87.9134C366.559 87.7344 366.785 87.4943 366.95 87.1932C367.117 86.892 367.201 86.5568 367.201 86.1875C367.201 85.8267 367.12 85.4986 366.958 85.2031C366.799 84.9048 366.579 84.6676 366.298 84.4915C366.019 84.3153 365.701 84.2273 365.343 84.2273C365.073 84.2273 364.822 84.2812 364.589 84.3892C364.356 84.4943 364.151 84.6392 363.975 84.8239C363.802 85.0085 363.665 85.2202 363.566 85.4588C363.467 85.6946 363.417 85.9432 363.417 86.2045C363.417 86.5511 363.498 86.875 363.66 87.1761C363.825 87.4773 364.049 87.7202 364.333 87.9048C364.62 88.0895 364.945 88.1818 365.309 88.1818ZM371.006 87.8068L370.938 88.267C370.89 88.5909 370.816 88.9375 370.717 89.3068C370.62 89.6761 370.519 90.0241 370.414 90.3509C370.309 90.6776 370.222 90.9375 370.154 91.1307H369.387C369.424 90.9489 369.472 90.7088 369.532 90.4105C369.592 90.1122 369.651 89.7784 369.711 89.4091C369.773 89.0426 369.825 88.6676 369.864 88.2841L369.915 87.8068H371.006ZM374.878 80.2727V89H373.821V81.3807H373.77L371.639 82.7955V81.7216L373.821 80.2727H374.878ZM380.234 89.1193C379.592 89.1193 379.045 88.9446 378.594 88.5952C378.142 88.2429 377.797 87.733 377.558 87.0653C377.32 86.3949 377.2 85.5852 377.2 84.6364C377.2 83.6932 377.32 82.8878 377.558 82.2202C377.8 81.5497 378.146 81.0384 378.598 80.6861C379.053 80.331 379.598 80.1534 380.234 80.1534C380.871 80.1534 381.415 80.331 381.866 80.6861C382.321 81.0384 382.668 81.5497 382.906 82.2202C383.148 82.8878 383.268 83.6932 383.268 84.6364C383.268 85.5852 383.149 86.3949 382.911 87.0653C382.672 87.733 382.327 88.2429 381.875 88.5952C381.423 88.9446 380.876 89.1193 380.234 89.1193ZM380.234 88.1818C380.871 88.1818 381.365 87.875 381.717 87.2614C382.07 86.6477 382.246 85.7727 382.246 84.6364C382.246 83.8807 382.165 83.2372 382.003 82.706C381.844 82.1747 381.614 81.7699 381.312 81.4915C381.014 81.2131 380.655 81.0739 380.234 81.0739C379.604 81.0739 379.111 81.3849 378.756 82.0071C378.401 82.6264 378.223 83.5028 378.223 84.6364C378.223 85.392 378.303 86.0341 378.462 86.5625C378.621 87.0909 378.849 87.4929 379.148 87.7685C379.449 88.044 379.811 88.1818 380.234 88.1818ZM386.1 87.8068L386.032 88.267C385.984 88.5909 385.91 88.9375 385.81 89.3068C385.714 89.6761 385.613 90.0241 385.508 90.3509C385.403 90.6776 385.316 90.9375 385.248 91.1307H384.481C384.518 90.9489 384.566 90.7088 384.626 90.4105C384.685 90.1122 384.745 89.7784 384.805 89.4091C384.867 89.0426 384.918 88.6676 384.958 88.2841L385.009 87.8068H386.1ZM389.972 80.2727V89H388.915V81.3807H388.864L386.733 82.7955V81.7216L388.915 80.2727H389.972ZM392.277 87.2102V86.3409L396.112 80.2727H396.743V81.6193H396.317L393.419 86.2045V86.2727H398.584V87.2102H392.277ZM396.385 89V86.946V86.5412V80.2727H397.391V89H396.385Z" fill="black"/>
<path d="M305.801 313.119C305.443 313.114 305.085 313.045 304.727 312.915C304.369 312.784 304.043 312.564 303.747 312.254C303.452 311.942 303.214 311.52 303.036 310.989C302.857 310.455 302.767 309.784 302.767 308.977C302.767 308.205 302.839 307.52 302.984 306.923C303.129 306.324 303.339 305.82 303.615 305.411C303.891 304.999 304.223 304.686 304.612 304.473C305.004 304.26 305.446 304.153 305.938 304.153C306.426 304.153 306.861 304.251 307.241 304.447C307.625 304.641 307.938 304.911 308.179 305.257C308.42 305.604 308.577 306.003 308.648 306.455H307.608C307.511 306.062 307.324 305.737 307.045 305.479C306.767 305.22 306.398 305.091 305.938 305.091C305.261 305.091 304.729 305.385 304.339 305.973C303.953 306.561 303.759 307.386 303.756 308.449H303.824C303.983 308.207 304.172 308.001 304.391 307.831C304.612 307.658 304.857 307.524 305.124 307.43C305.391 307.337 305.673 307.29 305.972 307.29C306.472 307.29 306.929 307.415 307.344 307.665C307.759 307.912 308.091 308.254 308.341 308.692C308.591 309.126 308.716 309.625 308.716 310.188C308.716 310.727 308.595 311.222 308.354 311.67C308.112 312.116 307.773 312.472 307.335 312.736C306.901 312.997 306.389 313.125 305.801 313.119ZM305.801 312.182C306.159 312.182 306.48 312.092 306.764 311.913C307.051 311.734 307.277 311.494 307.442 311.193C307.609 310.892 307.693 310.557 307.693 310.188C307.693 309.827 307.612 309.499 307.45 309.203C307.291 308.905 307.071 308.668 306.79 308.491C306.511 308.315 306.193 308.227 305.835 308.227C305.565 308.227 305.314 308.281 305.081 308.389C304.848 308.494 304.643 308.639 304.467 308.824C304.294 309.009 304.158 309.22 304.058 309.459C303.959 309.695 303.909 309.943 303.909 310.205C303.909 310.551 303.99 310.875 304.152 311.176C304.317 311.477 304.541 311.72 304.825 311.905C305.112 312.089 305.438 312.182 305.801 312.182ZM311.499 311.807L311.43 312.267C311.382 312.591 311.308 312.938 311.209 313.307C311.112 313.676 311.011 314.024 310.906 314.351C310.801 314.678 310.714 314.938 310.646 315.131H309.879C309.916 314.949 309.964 314.709 310.024 314.411C310.084 314.112 310.143 313.778 310.203 313.409C310.266 313.043 310.317 312.668 310.357 312.284L310.408 311.807H311.499ZM315.37 304.273V313H314.313V305.381H314.262L312.131 306.795V305.722L314.313 304.273H315.37ZM317.675 311.21V310.341L321.511 304.273H322.141V305.619H321.715L318.817 310.205V310.273H323.982V311.21H317.675ZM321.783 313V310.946V310.541V304.273H322.789V313H321.783Z" fill="black"/>
<path d="M416.699 310.21V309.341L420.534 303.273H421.165V304.619H420.739L417.841 309.205V309.273H423.006V310.21H416.699ZM420.807 312V309.946V309.541V303.273H421.812V312H420.807ZM425.71 310.807L425.641 311.267C425.593 311.591 425.519 311.938 425.42 312.307C425.323 312.676 425.222 313.024 425.117 313.351C425.012 313.678 424.925 313.938 424.857 314.131H424.09C424.127 313.949 424.175 313.709 424.235 313.411C424.295 313.112 424.354 312.778 424.414 312.409C424.477 312.043 424.528 311.668 424.567 311.284L424.619 310.807H425.71ZM430.107 312.119C429.607 312.119 429.157 312.02 428.756 311.821C428.356 311.622 428.035 311.349 427.793 311.003C427.552 310.656 427.42 310.261 427.397 309.818H428.42C428.46 310.213 428.638 310.54 428.957 310.798C429.278 311.054 429.661 311.182 430.107 311.182C430.465 311.182 430.783 311.098 431.062 310.93C431.343 310.763 431.563 310.533 431.722 310.24C431.884 309.945 431.965 309.611 431.965 309.239C431.965 308.858 431.881 308.518 431.714 308.22C431.549 307.919 431.322 307.682 431.032 307.509C430.742 307.335 430.411 307.247 430.039 307.244C429.772 307.241 429.498 307.283 429.217 307.368C428.935 307.45 428.704 307.557 428.522 307.688L427.533 307.568L428.062 303.273H432.596V304.21H428.948L428.641 306.784H428.692C428.871 306.642 429.096 306.524 429.366 306.43C429.636 306.337 429.917 306.29 430.21 306.29C430.744 306.29 431.219 306.418 431.637 306.673C432.058 306.926 432.387 307.273 432.626 307.713C432.867 308.153 432.988 308.656 432.988 309.222C432.988 309.778 432.863 310.276 432.613 310.713C432.366 311.148 432.025 311.491 431.59 311.744C431.156 311.994 430.661 312.119 430.107 312.119ZM435.87 310.807L435.801 311.267C435.753 311.591 435.679 311.938 435.58 312.307C435.483 312.676 435.382 313.024 435.277 313.351C435.172 313.678 435.086 313.938 435.017 314.131H434.25C434.287 313.949 434.336 313.709 434.395 313.411C434.455 313.112 434.515 312.778 434.574 312.409C434.637 312.043 434.688 311.668 434.728 311.284L434.779 310.807H435.87ZM439.741 303.273V312H438.684V304.381H438.633L436.502 305.795V304.722L438.684 303.273H439.741ZM445.098 312.119C444.456 312.119 443.909 311.945 443.457 311.595C443.005 311.243 442.66 310.733 442.422 310.065C442.183 309.395 442.064 308.585 442.064 307.636C442.064 306.693 442.183 305.888 442.422 305.22C442.663 304.55 443.01 304.038 443.461 303.686C443.916 303.331 444.461 303.153 445.098 303.153C445.734 303.153 446.278 303.331 446.73 303.686C447.184 304.038 447.531 304.55 447.77 305.22C448.011 305.888 448.132 306.693 448.132 307.636C448.132 308.585 448.012 309.395 447.774 310.065C447.535 310.733 447.19 311.243 446.738 311.595C446.287 311.945 445.74 312.119 445.098 312.119ZM445.098 311.182C445.734 311.182 446.228 310.875 446.581 310.261C446.933 309.648 447.109 308.773 447.109 307.636C447.109 306.881 447.028 306.237 446.866 305.706C446.707 305.175 446.477 304.77 446.176 304.491C445.877 304.213 445.518 304.074 445.098 304.074C444.467 304.074 443.974 304.385 443.619 305.007C443.264 305.626 443.086 306.503 443.086 307.636C443.086 308.392 443.166 309.034 443.325 309.562C443.484 310.091 443.713 310.493 444.011 310.768C444.312 311.044 444.674 311.182 445.098 311.182Z" fill="black"/>
</svg>
