<svg width="455" height="275" viewBox="0 0 455 275" fill="none" xmlns="http://www.w3.org/2000/svg">
<rect x="186.5" y="0.5" width="82" height="40" fill="white" stroke="#FF0000"/>
<path d="M213.42 20.6364C213.42 21.5568 213.254 22.3523 212.922 23.0227C212.589 23.6932 212.134 24.2102 211.554 24.5739C210.974 24.9375 210.313 25.1193 209.568 25.1193C208.824 25.1193 208.162 24.9375 207.582 24.5739C207.003 24.2102 206.547 23.6932 206.214 23.0227C205.882 22.3523 205.716 21.5568 205.716 20.6364C205.716 19.7159 205.882 18.9205 206.214 18.25C206.547 17.5795 207.003 17.0625 207.582 16.6989C208.162 16.3352 208.824 16.1534 209.568 16.1534C210.313 16.1534 210.974 16.3352 211.554 16.6989C212.134 17.0625 212.589 17.5795 212.922 18.25C213.254 18.9205 213.42 19.7159 213.42 20.6364ZM212.398 20.6364C212.398 19.8807 212.271 19.2429 212.018 18.723C211.768 18.2031 211.429 17.8097 211 17.5426C210.574 17.2756 210.097 17.142 209.568 17.142C209.04 17.142 208.561 17.2756 208.132 17.5426C207.706 17.8097 207.366 18.2031 207.114 18.723C206.864 19.2429 206.739 19.8807 206.739 20.6364C206.739 21.392 206.864 22.0298 207.114 22.5497C207.366 23.0696 207.706 23.4631 208.132 23.7301C208.561 23.9972 209.04 24.1307 209.568 24.1307C210.097 24.1307 210.574 23.9972 211 23.7301C211.429 23.4631 211.768 23.0696 212.018 22.5497C212.271 22.0298 212.398 21.392 212.398 20.6364ZM219.186 22.3239V18.4545H220.192V25H219.186V23.892H219.118C218.964 24.2244 218.726 24.5071 218.402 24.7401C218.078 24.9702 217.669 25.0852 217.175 25.0852C216.766 25.0852 216.402 24.9957 216.084 24.8168C215.766 24.6349 215.516 24.3622 215.334 23.9986C215.152 23.6321 215.061 23.1705 215.061 22.6136V18.4545H216.067V22.5455C216.067 23.0227 216.2 23.4034 216.467 23.6875C216.737 23.9716 217.081 24.1136 217.499 24.1136C217.749 24.1136 218.003 24.0497 218.261 23.9219C218.523 23.794 218.741 23.598 218.918 23.3338C219.097 23.0696 219.186 22.733 219.186 22.3239ZM224.88 18.4545V19.3068H221.488V18.4545H224.88ZM222.477 16.8864H223.483V23.125C223.483 23.4091 223.524 23.6222 223.606 23.7642C223.691 23.9034 223.799 23.9972 223.93 24.0455C224.064 24.0909 224.204 24.1136 224.352 24.1136C224.463 24.1136 224.554 24.108 224.625 24.0966C224.696 24.0824 224.752 24.071 224.795 24.0625L225 24.9659C224.931 24.9915 224.836 25.017 224.714 25.0426C224.592 25.071 224.437 25.0852 224.25 25.0852C223.966 25.0852 223.687 25.0241 223.414 24.902C223.145 24.7798 222.92 24.5938 222.741 24.3438C222.565 24.0938 222.477 23.7784 222.477 23.3977V16.8864ZM227.539 16.2727V25H226.534V16.2727H227.539ZM232.04 25.1364C231.45 25.1364 230.931 24.9957 230.485 24.7145C230.042 24.4332 229.695 24.0398 229.445 23.5341C229.198 23.0284 229.075 22.4375 229.075 21.7614C229.075 21.0795 229.198 20.4844 229.445 19.9759C229.695 19.4673 230.042 19.0724 230.485 18.7912C230.931 18.5099 231.45 18.3693 232.04 18.3693C232.631 18.3693 233.148 18.5099 233.592 18.7912C234.038 19.0724 234.384 19.4673 234.631 19.9759C234.881 20.4844 235.006 21.0795 235.006 21.7614C235.006 22.4375 234.881 23.0284 234.631 23.5341C234.384 24.0398 234.038 24.4332 233.592 24.7145C233.148 24.9957 232.631 25.1364 232.04 25.1364ZM232.04 24.233C232.489 24.233 232.859 24.1179 233.148 23.8878C233.438 23.6577 233.653 23.3551 233.792 22.9801C233.931 22.6051 234.001 22.1989 234.001 21.7614C234.001 21.3239 233.931 20.9162 233.792 20.5384C233.653 20.1605 233.438 19.8551 233.148 19.6222C232.859 19.3892 232.489 19.2727 232.04 19.2727C231.592 19.2727 231.222 19.3892 230.933 19.6222C230.643 19.8551 230.428 20.1605 230.289 20.5384C230.15 20.9162 230.08 21.3239 230.08 21.7614C230.08 22.1989 230.15 22.6051 230.289 22.9801C230.428 23.3551 230.643 23.6577 230.933 23.8878C231.222 24.1179 231.592 24.233 232.04 24.233ZM239.201 25.1364C238.61 25.1364 238.091 24.9957 237.645 24.7145C237.202 24.4332 236.855 24.0398 236.605 23.5341C236.358 23.0284 236.235 22.4375 236.235 21.7614C236.235 21.0795 236.358 20.4844 236.605 19.9759C236.855 19.4673 237.202 19.0724 237.645 18.7912C238.091 18.5099 238.61 18.3693 239.201 18.3693C239.792 18.3693 240.309 18.5099 240.752 18.7912C241.198 19.0724 241.544 19.4673 241.792 19.9759C242.042 20.4844 242.167 21.0795 242.167 21.7614C242.167 22.4375 242.042 23.0284 241.792 23.5341C241.544 24.0398 241.198 24.4332 240.752 24.7145C240.309 24.9957 239.792 25.1364 239.201 25.1364ZM239.201 24.233C239.65 24.233 240.019 24.1179 240.309 23.8878C240.598 23.6577 240.813 23.3551 240.952 22.9801C241.091 22.6051 241.161 22.1989 241.161 21.7614C241.161 21.3239 241.091 20.9162 240.952 20.5384C240.813 20.1605 240.598 19.8551 240.309 19.6222C240.019 19.3892 239.65 19.2727 239.201 19.2727C238.752 19.2727 238.382 19.3892 238.093 19.6222C237.803 19.8551 237.588 20.1605 237.449 20.5384C237.31 20.9162 237.24 21.3239 237.24 21.7614C237.24 22.1989 237.31 22.6051 237.449 22.9801C237.588 23.3551 237.803 23.6577 238.093 23.8878C238.382 24.1179 238.752 24.233 239.201 24.233ZM244.639 22.6136L244.622 21.3693H244.827L247.69 18.4545H248.935L245.884 21.5398H245.798L244.639 22.6136ZM243.702 25V16.2727H244.707V25H243.702ZM247.861 25L245.304 21.7614L246.02 21.0625L249.139 25H247.861Z" fill="black"/>
<path d="M310.057 84V75.2727H313.006C313.688 75.2727 314.247 75.3892 314.685 75.6222C315.122 75.8523 315.446 76.169 315.656 76.5724C315.866 76.9759 315.972 77.4347 315.972 77.9489C315.972 78.4631 315.866 78.919 315.656 79.3168C315.446 79.7145 315.124 80.027 314.689 80.2543C314.254 80.4787 313.699 80.5909 313.023 80.5909H310.636V79.6364H312.989C313.455 79.6364 313.83 79.5682 314.114 79.4318C314.401 79.2955 314.608 79.1023 314.736 78.8523C314.866 78.5994 314.932 78.2983 314.932 77.9489C314.932 77.5994 314.866 77.294 314.736 77.0327C314.605 76.7713 314.396 76.5696 314.109 76.4276C313.822 76.2827 313.443 76.2102 312.972 76.2102H311.114V84H310.057ZM314.165 80.0795L316.312 84H315.085L312.972 80.0795H314.165ZM319.522 84.1534C319.108 84.1534 318.731 84.0753 318.393 83.919C318.055 83.7599 317.787 83.5312 317.588 83.233C317.389 82.9318 317.289 82.5682 317.289 82.142C317.289 81.767 317.363 81.4631 317.511 81.2301C317.659 80.9943 317.856 80.8097 318.103 80.6761C318.35 80.5426 318.623 80.4432 318.922 80.3778C319.223 80.3097 319.525 80.2557 319.829 80.2159C320.227 80.1648 320.549 80.1264 320.797 80.1009C321.047 80.0724 321.228 80.0256 321.342 79.9602C321.458 79.8949 321.517 79.7812 321.517 79.6193V79.5852C321.517 79.1648 321.402 78.8381 321.172 78.6051C320.944 78.3722 320.599 78.2557 320.136 78.2557C319.656 78.2557 319.279 78.3608 319.007 78.571C318.734 78.7812 318.542 79.0057 318.431 79.2443L317.477 78.9034C317.647 78.5057 317.875 78.196 318.159 77.9744C318.446 77.75 318.758 77.5937 319.096 77.5057C319.437 77.4148 319.772 77.3693 320.102 77.3693C320.312 77.3693 320.554 77.3949 320.826 77.446C321.102 77.4943 321.368 77.5952 321.623 77.7486C321.882 77.902 322.096 78.1335 322.267 78.4432C322.437 78.7528 322.522 79.1676 322.522 79.6875V84H321.517V83.1136H321.466C321.397 83.2557 321.284 83.4077 321.125 83.5696C320.966 83.7315 320.754 83.8693 320.49 83.983C320.225 84.0966 319.903 84.1534 319.522 84.1534ZM319.676 83.25C320.074 83.25 320.409 83.1719 320.681 83.0156C320.957 82.8594 321.164 82.6577 321.304 82.4105C321.446 82.1634 321.517 81.9034 321.517 81.6307V80.7102C321.474 80.7614 321.38 80.8082 321.235 80.8509C321.093 80.8906 320.929 80.9261 320.741 80.9574C320.556 80.9858 320.376 81.0114 320.2 81.0341C320.027 81.054 319.886 81.071 319.778 81.0852C319.517 81.1193 319.272 81.1747 319.045 81.2514C318.821 81.3253 318.639 81.4375 318.5 81.5881C318.363 81.7358 318.295 81.9375 318.295 82.1932C318.295 82.5426 318.424 82.8068 318.683 82.9858C318.944 83.1619 319.275 83.25 319.676 83.25ZM324.358 84V77.4545H325.364V84H324.358ZM324.869 76.3636C324.673 76.3636 324.504 76.2969 324.362 76.1634C324.223 76.0298 324.153 75.8693 324.153 75.6818C324.153 75.4943 324.223 75.3338 324.362 75.2003C324.504 75.0668 324.673 75 324.869 75C325.065 75 325.233 75.0668 325.372 75.2003C325.514 75.3338 325.585 75.4943 325.585 75.6818C325.585 75.8693 325.514 76.0298 325.372 76.1634C325.233 76.2969 325.065 76.3636 324.869 76.3636ZM328.211 80.0625V84H327.206V77.4545H328.177V78.4773H328.262C328.416 78.1449 328.649 77.8778 328.961 77.6761C329.274 77.4716 329.677 77.3693 330.172 77.3693C330.615 77.3693 331.002 77.4602 331.335 77.642C331.667 77.821 331.926 78.0938 332.11 78.4602C332.295 78.8239 332.387 79.2841 332.387 79.8409V84H331.382V79.9091C331.382 79.3949 331.248 78.9943 330.981 78.7074C330.714 78.4176 330.348 78.2727 329.882 78.2727C329.561 78.2727 329.274 78.3423 329.021 78.4815C328.771 78.6207 328.574 78.8239 328.429 79.0909C328.284 79.358 328.211 79.6818 328.211 80.0625Z" fill="black"/>
<path d="M210.42 79.6364C210.42 80.5568 210.254 81.3523 209.922 82.0227C209.589 82.6932 209.134 83.2102 208.554 83.5739C207.974 83.9375 207.313 84.1193 206.568 84.1193C205.824 84.1193 205.162 83.9375 204.582 83.5739C204.003 83.2102 203.547 82.6932 203.214 82.0227C202.882 81.3523 202.716 80.5568 202.716 79.6364C202.716 78.7159 202.882 77.9205 203.214 77.25C203.547 76.5795 204.003 76.0625 204.582 75.6989C205.162 75.3352 205.824 75.1534 206.568 75.1534C207.313 75.1534 207.974 75.3352 208.554 75.6989C209.134 76.0625 209.589 76.5795 209.922 77.25C210.254 77.9205 210.42 78.7159 210.42 79.6364ZM209.398 79.6364C209.398 78.8807 209.271 78.2429 209.018 77.723C208.768 77.2031 208.429 76.8097 208 76.5426C207.574 76.2756 207.097 76.142 206.568 76.142C206.04 76.142 205.561 76.2756 205.132 76.5426C204.706 76.8097 204.366 77.2031 204.114 77.723C203.864 78.2429 203.739 78.8807 203.739 79.6364C203.739 80.392 203.864 81.0298 204.114 81.5497C204.366 82.0696 204.706 82.4631 205.132 82.7301C205.561 82.9972 206.04 83.1307 206.568 83.1307C207.097 83.1307 207.574 82.9972 208 82.7301C208.429 82.4631 208.768 82.0696 209.018 81.5497C209.271 81.0298 209.398 80.392 209.398 79.6364ZM217.413 77.4545L214.993 84H213.97L211.55 77.4545H212.641L214.447 82.6705H214.516L216.322 77.4545H217.413ZM221.251 84.1364C220.62 84.1364 220.076 83.9972 219.619 83.7188C219.164 83.4375 218.813 83.0455 218.566 82.5426C218.322 82.0369 218.2 81.4489 218.2 80.7784C218.2 80.108 218.322 79.517 218.566 79.0057C218.813 78.4915 219.157 78.0909 219.597 77.804C220.04 77.5142 220.558 77.3693 221.148 77.3693C221.489 77.3693 221.826 77.4261 222.158 77.5398C222.491 77.6534 222.793 77.8381 223.066 78.0938C223.339 78.3466 223.556 78.6818 223.718 79.0994C223.88 79.517 223.961 80.0312 223.961 80.642V81.0682H218.915V80.1989H222.938C222.938 79.8295 222.864 79.5 222.717 79.2102C222.572 78.9205 222.364 78.6918 222.094 78.5241C221.827 78.3565 221.512 78.2727 221.148 78.2727C220.748 78.2727 220.401 78.3722 220.109 78.571C219.819 78.767 219.596 79.0227 219.44 79.3381C219.283 79.6534 219.205 79.9915 219.205 80.3523V80.9318C219.205 81.4261 219.29 81.8452 219.461 82.1889C219.634 82.5298 219.874 82.7898 220.181 82.9688C220.488 83.1449 220.844 83.233 221.251 83.233C221.515 83.233 221.754 83.196 221.967 83.1222C222.183 83.0455 222.369 82.9318 222.525 82.7812C222.681 82.6278 222.802 82.4375 222.887 82.2102L223.859 82.483C223.756 82.8125 223.585 83.1023 223.343 83.3523C223.102 83.5994 222.803 83.7926 222.448 83.9318C222.093 84.0682 221.694 84.1364 221.251 84.1364ZM225.491 84V77.4545H226.462V78.4432H226.531C226.65 78.1193 226.866 77.8565 227.178 77.6548C227.491 77.4531 227.843 77.3523 228.235 77.3523C228.309 77.3523 228.401 77.3537 228.512 77.3565C228.623 77.3594 228.707 77.3636 228.763 77.3693V78.392C228.729 78.3835 228.651 78.3707 228.529 78.3537C228.41 78.3338 228.283 78.3239 228.15 78.3239C227.832 78.3239 227.548 78.3906 227.298 78.5241C227.05 78.6548 226.854 78.8366 226.71 79.0696C226.567 79.2997 226.496 79.5625 226.496 79.858V84H225.491ZM232.415 84.1364C231.802 84.1364 231.273 83.9915 230.83 83.7017C230.387 83.4119 230.046 83.0128 229.808 82.5043C229.569 81.9957 229.45 81.4148 229.45 80.7614C229.45 80.0966 229.572 79.5099 229.816 79.0014C230.063 78.4901 230.407 78.0909 230.847 77.804C231.29 77.5142 231.808 77.3693 232.398 77.3693C232.859 77.3693 233.273 77.4545 233.643 77.625C234.012 77.7955 234.315 78.0341 234.55 78.3409C234.786 78.6477 234.933 79.0057 234.989 79.4148H233.984C233.907 79.1165 233.737 78.8523 233.472 78.6222C233.211 78.3892 232.859 78.2727 232.415 78.2727C232.023 78.2727 231.68 78.375 231.384 78.5795C231.092 78.7812 230.863 79.0668 230.698 79.4361C230.536 79.8026 230.455 80.233 230.455 80.7273C230.455 81.233 230.535 81.6733 230.694 82.0483C230.856 82.4233 231.083 82.7145 231.376 82.9219C231.671 83.1293 232.018 83.233 232.415 83.233C232.677 83.233 232.914 83.1875 233.127 83.0966C233.34 83.0057 233.521 82.875 233.668 82.7045C233.816 82.5341 233.921 82.3295 233.984 82.0909H234.989C234.933 82.4773 234.792 82.8253 234.567 83.1349C234.346 83.4418 234.052 83.6861 233.685 83.8679C233.322 84.0469 232.898 84.1364 232.415 84.1364ZM238.386 84.1534C237.971 84.1534 237.594 84.0753 237.256 83.919C236.918 83.7599 236.65 83.5312 236.451 83.233C236.252 82.9318 236.153 82.5682 236.153 82.142C236.153 81.767 236.227 81.4631 236.374 81.2301C236.522 80.9943 236.719 80.8097 236.967 80.6761C237.214 80.5426 237.487 80.4432 237.785 80.3778C238.086 80.3097 238.388 80.2557 238.692 80.2159C239.09 80.1648 239.413 80.1264 239.66 80.1009C239.91 80.0724 240.092 80.0256 240.205 79.9602C240.322 79.8949 240.38 79.7812 240.38 79.6193V79.5852C240.38 79.1648 240.265 78.8381 240.035 78.6051C239.808 78.3722 239.462 78.2557 238.999 78.2557C238.519 78.2557 238.143 78.3608 237.87 78.571C237.597 78.7812 237.406 79.0057 237.295 79.2443L236.34 78.9034C236.511 78.5057 236.738 78.196 237.022 77.9744C237.309 77.75 237.621 77.5937 237.96 77.5057C238.3 77.4148 238.636 77.3693 238.965 77.3693C239.175 77.3693 239.417 77.3949 239.69 77.446C239.965 77.4943 240.231 77.5952 240.487 77.7486C240.745 77.902 240.96 78.1335 241.13 78.4432C241.3 78.7528 241.386 79.1676 241.386 79.6875V84H240.38V83.1136H240.329C240.261 83.2557 240.147 83.4077 239.988 83.5696C239.829 83.7315 239.617 83.8693 239.353 83.983C239.089 84.0966 238.766 84.1534 238.386 84.1534ZM238.539 83.25C238.937 83.25 239.272 83.1719 239.545 83.0156C239.82 82.8594 240.028 82.6577 240.167 82.4105C240.309 82.1634 240.38 81.9034 240.38 81.6307V80.7102C240.337 80.7614 240.244 80.8082 240.099 80.8509C239.957 80.8906 239.792 80.9261 239.604 80.9574C239.42 80.9858 239.239 81.0114 239.063 81.0341C238.89 81.054 238.749 81.071 238.641 81.0852C238.38 81.1193 238.136 81.1747 237.908 81.2514C237.684 81.3253 237.502 81.4375 237.363 81.5881C237.227 81.7358 237.158 81.9375 237.158 82.1932C237.158 82.5426 237.288 82.8068 237.546 82.9858C237.808 83.1619 238.138 83.25 238.539 83.25ZM247.858 78.9205L246.954 79.1761C246.897 79.0256 246.814 78.8793 246.703 78.7372C246.595 78.5923 246.447 78.473 246.26 78.3793C246.072 78.2855 245.832 78.2386 245.539 78.2386C245.139 78.2386 244.805 78.331 244.538 78.5156C244.274 78.6974 244.142 78.929 244.142 79.2102C244.142 79.4602 244.233 79.6577 244.414 79.8026C244.596 79.9474 244.88 80.0682 245.267 80.1648L246.238 80.4034C246.824 80.5455 247.26 80.7628 247.547 81.0554C247.833 81.3452 247.977 81.7187 247.977 82.1761C247.977 82.5511 247.869 82.8864 247.653 83.1818C247.44 83.4773 247.142 83.7102 246.758 83.8807C246.375 84.0511 245.929 84.1364 245.42 84.1364C244.752 84.1364 244.2 83.9915 243.762 83.7017C243.325 83.4119 243.048 82.9886 242.931 82.4318L243.886 82.1932C243.977 82.5455 244.149 82.8097 244.402 82.9858C244.657 83.1619 244.991 83.25 245.403 83.25C245.872 83.25 246.244 83.1506 246.52 82.9517C246.798 82.75 246.937 82.5085 246.937 82.2273C246.937 82 246.858 81.8097 246.699 81.6562C246.539 81.5 246.295 81.3835 245.966 81.3068L244.875 81.0511C244.275 80.9091 243.835 80.6889 243.554 80.3906C243.275 80.0895 243.136 79.7131 243.136 79.2614C243.136 78.892 243.24 78.5653 243.447 78.2812C243.657 77.9972 243.943 77.7741 244.304 77.6122C244.667 77.4503 245.079 77.3693 245.539 77.3693C246.187 77.3693 246.696 77.5114 247.065 77.7955C247.437 78.0795 247.701 78.4545 247.858 78.9205ZM252.337 77.4545V78.3068H248.945V77.4545H252.337ZM249.934 75.8864H250.94V82.125C250.94 82.4091 250.981 82.6222 251.063 82.7642C251.148 82.9034 251.256 82.9972 251.387 83.0455C251.521 83.0909 251.661 83.1136 251.809 83.1136C251.92 83.1136 252.011 83.108 252.082 83.0966C252.153 83.0824 252.21 83.071 252.252 83.0625L252.457 83.9659C252.388 83.9915 252.293 84.017 252.171 84.0426C252.049 84.071 251.894 84.0852 251.707 84.0852C251.423 84.0852 251.144 84.0241 250.871 83.902C250.602 83.7798 250.377 83.5938 250.198 83.3438C250.022 83.0938 249.934 82.7784 249.934 82.3977V75.8864Z" fill="black"/>
<path d="M121.83 77.4545C121.778 77.0227 121.571 76.6875 121.207 76.4489C120.844 76.2102 120.398 76.0909 119.869 76.0909C119.483 76.0909 119.145 76.1534 118.855 76.2784C118.568 76.4034 118.344 76.5753 118.182 76.794C118.023 77.0128 117.943 77.2614 117.943 77.5398C117.943 77.7727 117.999 77.973 118.109 78.1406C118.223 78.3054 118.368 78.4432 118.544 78.554C118.72 78.6619 118.905 78.7514 119.098 78.8224C119.291 78.8906 119.469 78.946 119.631 78.9886L120.517 79.2273C120.744 79.2869 120.997 79.3693 121.276 79.4744C121.557 79.5795 121.825 79.723 122.081 79.9048C122.339 80.0838 122.553 80.3139 122.72 80.5952C122.888 80.8764 122.972 81.2216 122.972 81.6307C122.972 82.1023 122.848 82.5284 122.601 82.9091C122.357 83.2898 121.999 83.5923 121.527 83.8168C121.058 84.0412 120.489 84.1534 119.818 84.1534C119.193 84.1534 118.652 84.0526 118.195 83.8509C117.74 83.6491 117.382 83.3679 117.121 83.0071C116.862 82.6463 116.716 82.2273 116.682 81.75H117.773C117.801 82.0795 117.912 82.3523 118.105 82.5682C118.301 82.7812 118.548 82.9403 118.847 83.0455C119.148 83.1477 119.472 83.1989 119.818 83.1989C120.222 83.1989 120.584 83.1335 120.905 83.0028C121.226 82.8693 121.48 82.6847 121.668 82.4489C121.855 82.2102 121.949 81.9318 121.949 81.6136C121.949 81.3239 121.868 81.0881 121.706 80.9062C121.544 80.7244 121.331 80.5767 121.067 80.4631C120.803 80.3494 120.517 80.25 120.21 80.1648L119.136 79.858C118.455 79.6619 117.915 79.3821 117.517 79.0185C117.119 78.6548 116.92 78.179 116.92 77.5909C116.92 77.1023 117.053 76.6761 117.317 76.3125C117.584 75.946 117.942 75.6619 118.391 75.4602C118.842 75.2557 119.347 75.1534 119.903 75.1534C120.466 75.1534 120.966 75.2543 121.403 75.456C121.841 75.6548 122.188 75.9276 122.443 76.2741C122.702 76.6207 122.838 77.0142 122.852 77.4545H121.83ZM128.698 81.3239V77.4545H129.703V84H128.698V82.892H128.63C128.476 83.2244 128.238 83.5071 127.914 83.7401C127.59 83.9702 127.181 84.0852 126.686 84.0852C126.277 84.0852 125.914 83.9957 125.596 83.8168C125.277 83.6349 125.027 83.3622 124.846 82.9986C124.664 82.6321 124.573 82.1705 124.573 81.6136V77.4545H125.578V81.5455C125.578 82.0227 125.712 82.4034 125.979 82.6875C126.249 82.9716 126.593 83.1136 127.01 83.1136C127.26 83.1136 127.515 83.0497 127.773 82.9219C128.034 82.794 128.253 82.598 128.429 82.3338C128.608 82.0696 128.698 81.733 128.698 81.3239ZM132.551 80.0625V84H131.545V77.4545H132.517V78.4773H132.602C132.756 78.1449 132.989 77.8778 133.301 77.6761C133.614 77.4716 134.017 77.3693 134.511 77.3693C134.955 77.3693 135.342 77.4602 135.675 77.642C136.007 77.821 136.266 78.0938 136.45 78.4602C136.635 78.8239 136.727 79.2841 136.727 79.8409V84H135.722V79.9091C135.722 79.3949 135.588 78.9943 135.321 78.7074C135.054 78.4176 134.688 78.2727 134.222 78.2727C133.901 78.2727 133.614 78.3423 133.361 78.4815C133.111 78.6207 132.913 78.8239 132.768 79.0909C132.624 79.358 132.551 79.6818 132.551 80.0625ZM139.571 80.0625V84H138.565V77.4545H139.537V78.4773H139.622C139.775 78.1449 140.008 77.8778 140.321 77.6761C140.633 77.4716 141.037 77.3693 141.531 77.3693C141.974 77.3693 142.362 77.4602 142.694 77.642C143.027 77.821 143.285 78.0938 143.47 78.4602C143.654 78.8239 143.747 79.2841 143.747 79.8409V84H142.741V79.9091C142.741 79.3949 142.608 78.9943 142.341 78.7074C142.074 78.4176 141.707 78.2727 141.241 78.2727C140.92 78.2727 140.633 78.3423 140.38 78.4815C140.13 78.6207 139.933 78.8239 139.788 79.0909C139.643 79.358 139.571 79.6818 139.571 80.0625ZM145.998 86.4545C145.827 86.4545 145.675 86.4403 145.542 86.4119C145.408 86.3864 145.316 86.3608 145.265 86.3352L145.521 85.4489C145.765 85.5114 145.981 85.5341 146.168 85.517C146.356 85.5 146.522 85.4162 146.667 85.2656C146.815 85.1179 146.95 84.8778 147.072 84.5455L147.259 84.0341L144.839 77.4545H145.93L147.737 82.6705H147.805L149.612 77.4545H150.702L147.924 84.9545C147.799 85.2926 147.644 85.5724 147.46 85.794C147.275 86.0185 147.06 86.1847 146.816 86.2926C146.575 86.4006 146.302 86.4545 145.998 86.4545Z" fill="black"/>
<path d="M30.0568 206V197.273H31.1136V201.159H35.767V197.273H36.8239V206H35.767V202.097H31.1136V206H30.0568ZM38.8033 206V199.455H39.8089V206H38.8033ZM39.3146 198.364C39.1186 198.364 38.9496 198.297 38.8075 198.163C38.6683 198.03 38.5987 197.869 38.5987 197.682C38.5987 197.494 38.6683 197.334 38.8075 197.2C38.9496 197.067 39.1186 197 39.3146 197C39.5107 197 39.6783 197.067 39.8175 197.2C39.9595 197.334 40.0305 197.494 40.0305 197.682C40.0305 197.869 39.9595 198.03 39.8175 198.163C39.6783 198.297 39.5107 198.364 39.3146 198.364ZM44.293 208.591C43.8072 208.591 43.3896 208.528 43.0401 208.403C42.6907 208.281 42.3995 208.119 42.1665 207.918C41.9364 207.719 41.7532 207.506 41.6168 207.278L42.418 206.716C42.5089 206.835 42.6239 206.972 42.7631 207.125C42.9023 207.281 43.0927 207.416 43.3342 207.53C43.5785 207.646 43.8981 207.705 44.293 207.705C44.8214 207.705 45.2575 207.577 45.6012 207.321C45.945 207.065 46.1168 206.665 46.1168 206.119V204.79H46.0316C45.9577 204.909 45.8526 205.057 45.7163 205.233C45.5827 205.406 45.3896 205.561 45.1367 205.697C44.8867 205.831 44.5487 205.898 44.1225 205.898C43.5941 205.898 43.1197 205.773 42.6992 205.523C42.2816 205.273 41.9506 204.909 41.7063 204.432C41.4648 203.955 41.3441 203.375 41.3441 202.693C41.3441 202.023 41.462 201.439 41.6978 200.942C41.9336 200.442 42.2617 200.055 42.6822 199.783C43.1026 199.507 43.5884 199.369 44.1396 199.369C44.5657 199.369 44.9038 199.44 45.1538 199.582C45.4066 199.722 45.5998 199.881 45.7333 200.06C45.8697 200.236 45.9748 200.381 46.0487 200.494H46.1509V199.455H47.1225V206.188C47.1225 206.75 46.9947 207.207 46.739 207.56C46.4862 207.915 46.1452 208.175 45.7163 208.339C45.2901 208.507 44.8157 208.591 44.293 208.591ZM44.2589 204.994C44.6623 204.994 45.0032 204.902 45.2816 204.717C45.56 204.533 45.7717 204.267 45.9165 203.92C46.0614 203.574 46.1339 203.159 46.1339 202.676C46.1339 202.205 46.0629 201.788 45.9208 201.428C45.7788 201.067 45.5685 200.784 45.2901 200.58C45.0117 200.375 44.668 200.273 44.2589 200.273C43.8327 200.273 43.4776 200.381 43.1935 200.597C42.9123 200.812 42.7006 201.102 42.5586 201.466C42.4194 201.83 42.3498 202.233 42.3498 202.676C42.3498 203.131 42.4208 203.533 42.5629 203.882C42.7077 204.229 42.9208 204.501 43.2021 204.7C43.4862 204.896 43.8384 204.994 44.2589 204.994ZM49.9691 202.062V206H48.9634V197.273H49.9691V200.477H50.0543C50.2077 200.139 50.4379 199.871 50.7447 199.672C51.0543 199.47 51.4663 199.369 51.9805 199.369C52.4265 199.369 52.8171 199.459 53.1523 199.638C53.4876 199.814 53.7475 200.085 53.9322 200.452C54.1197 200.815 54.2134 201.278 54.2134 201.841V206H53.2077V201.909C53.2077 201.389 53.0728 200.987 52.8029 200.703C52.5359 200.416 52.1651 200.273 51.6907 200.273C51.3612 200.273 51.0657 200.342 50.8043 200.482C50.5458 200.621 50.3413 200.824 50.1907 201.091C50.043 201.358 49.9691 201.682 49.9691 202.062Z" fill="black"/>
<path d="M394.057 208V199.273H399.29V200.21H395.114V203.159H398.898V204.097H395.114V208H394.057ZM402.89 208.153C402.475 208.153 402.098 208.075 401.76 207.919C401.422 207.76 401.154 207.531 400.955 207.233C400.756 206.932 400.657 206.568 400.657 206.142C400.657 205.767 400.73 205.463 400.878 205.23C401.026 204.994 401.223 204.81 401.471 204.676C401.718 204.543 401.99 204.443 402.289 204.378C402.59 204.31 402.892 204.256 403.196 204.216C403.594 204.165 403.917 204.126 404.164 204.101C404.414 204.072 404.596 204.026 404.709 203.96C404.826 203.895 404.884 203.781 404.884 203.619V203.585C404.884 203.165 404.769 202.838 404.539 202.605C404.311 202.372 403.966 202.256 403.503 202.256C403.023 202.256 402.647 202.361 402.374 202.571C402.101 202.781 401.909 203.006 401.799 203.244L400.844 202.903C401.015 202.506 401.242 202.196 401.526 201.974C401.813 201.75 402.125 201.594 402.463 201.506C402.804 201.415 403.14 201.369 403.469 201.369C403.679 201.369 403.921 201.395 404.194 201.446C404.469 201.494 404.735 201.595 404.99 201.749C405.249 201.902 405.463 202.134 405.634 202.443C405.804 202.753 405.89 203.168 405.89 203.688V208H404.884V207.114H404.833C404.765 207.256 404.651 207.408 404.492 207.57C404.333 207.732 404.121 207.869 403.857 207.983C403.593 208.097 403.27 208.153 402.89 208.153ZM403.043 207.25C403.441 207.25 403.776 207.172 404.049 207.016C404.324 206.859 404.532 206.658 404.671 206.411C404.813 206.163 404.884 205.903 404.884 205.631V204.71C404.841 204.761 404.748 204.808 404.603 204.851C404.461 204.891 404.296 204.926 404.108 204.957C403.924 204.986 403.743 205.011 403.567 205.034C403.394 205.054 403.253 205.071 403.145 205.085C402.884 205.119 402.64 205.175 402.412 205.251C402.188 205.325 402.006 205.437 401.867 205.588C401.73 205.736 401.662 205.937 401.662 206.193C401.662 206.543 401.792 206.807 402.05 206.986C402.311 207.162 402.642 207.25 403.043 207.25ZM408.731 199.273V208H407.725V199.273H408.731ZM415.209 202.92L414.306 203.176C414.249 203.026 414.165 202.879 414.054 202.737C413.946 202.592 413.799 202.473 413.611 202.379C413.424 202.286 413.184 202.239 412.891 202.239C412.49 202.239 412.157 202.331 411.89 202.516C411.625 202.697 411.493 202.929 411.493 203.21C411.493 203.46 411.584 203.658 411.766 203.803C411.948 203.947 412.232 204.068 412.618 204.165L413.59 204.403C414.175 204.545 414.611 204.763 414.898 205.055C415.185 205.345 415.328 205.719 415.328 206.176C415.328 206.551 415.221 206.886 415.005 207.182C414.792 207.477 414.493 207.71 414.11 207.881C413.726 208.051 413.28 208.136 412.772 208.136C412.104 208.136 411.551 207.991 411.114 207.702C410.676 207.412 410.4 206.989 410.283 206.432L411.238 206.193C411.328 206.545 411.5 206.81 411.753 206.986C412.009 207.162 412.343 207.25 412.755 207.25C413.223 207.25 413.596 207.151 413.871 206.952C414.15 206.75 414.289 206.509 414.289 206.227C414.289 206 414.209 205.81 414.05 205.656C413.891 205.5 413.647 205.384 413.317 205.307L412.226 205.051C411.627 204.909 411.186 204.689 410.905 204.391C410.627 204.089 410.488 203.713 410.488 203.261C410.488 202.892 410.591 202.565 410.799 202.281C411.009 201.997 411.294 201.774 411.655 201.612C412.019 201.45 412.431 201.369 412.891 201.369C413.539 201.369 414.047 201.511 414.417 201.795C414.789 202.08 415.053 202.455 415.209 202.92ZM419.587 208.136C418.956 208.136 418.412 207.997 417.955 207.719C417.5 207.438 417.149 207.045 416.902 206.543C416.658 206.037 416.536 205.449 416.536 204.778C416.536 204.108 416.658 203.517 416.902 203.006C417.149 202.491 417.493 202.091 417.933 201.804C418.376 201.514 418.893 201.369 419.484 201.369C419.825 201.369 420.162 201.426 420.494 201.54C420.827 201.653 421.129 201.838 421.402 202.094C421.675 202.347 421.892 202.682 422.054 203.099C422.216 203.517 422.297 204.031 422.297 204.642V205.068H417.251V204.199H421.274C421.274 203.83 421.2 203.5 421.053 203.21C420.908 202.92 420.7 202.692 420.43 202.524C420.163 202.357 419.848 202.273 419.484 202.273C419.084 202.273 418.737 202.372 418.445 202.571C418.155 202.767 417.932 203.023 417.776 203.338C417.619 203.653 417.541 203.991 417.541 204.352V204.932C417.541 205.426 417.626 205.845 417.797 206.189C417.97 206.53 418.21 206.79 418.517 206.969C418.824 207.145 419.18 207.233 419.587 207.233C419.851 207.233 420.089 207.196 420.303 207.122C420.518 207.045 420.705 206.932 420.861 206.781C421.017 206.628 421.138 206.437 421.223 206.21L422.195 206.483C422.092 206.812 421.92 207.102 421.679 207.352C421.438 207.599 421.139 207.793 420.784 207.932C420.429 208.068 420.03 208.136 419.587 208.136Z" fill="black"/>
<path d="M322.58 200.21V199.273H329.125V200.21H326.381V208H325.324V200.21H322.58ZM329.94 208V201.455H330.912V202.443H330.98C331.099 202.119 331.315 201.857 331.627 201.655C331.94 201.453 332.292 201.352 332.684 201.352C332.758 201.352 332.85 201.354 332.961 201.357C333.072 201.359 333.156 201.364 333.213 201.369V202.392C333.179 202.384 333.1 202.371 332.978 202.354C332.859 202.334 332.733 202.324 332.599 202.324C332.281 202.324 331.997 202.391 331.747 202.524C331.5 202.655 331.304 202.837 331.159 203.07C331.017 203.3 330.946 203.562 330.946 203.858V208H329.94ZM338.53 205.324V201.455H339.536V208H338.53V206.892H338.462C338.308 207.224 338.07 207.507 337.746 207.74C337.422 207.97 337.013 208.085 336.518 208.085C336.109 208.085 335.746 207.996 335.428 207.817C335.109 207.635 334.859 207.362 334.678 206.999C334.496 206.632 334.405 206.17 334.405 205.614V201.455H335.411V205.545C335.411 206.023 335.544 206.403 335.811 206.688C336.081 206.972 336.425 207.114 336.842 207.114C337.092 207.114 337.347 207.05 337.605 206.922C337.866 206.794 338.085 206.598 338.261 206.334C338.44 206.07 338.53 205.733 338.53 205.324ZM344.122 208.136C343.491 208.136 342.947 207.997 342.49 207.719C342.035 207.438 341.684 207.045 341.437 206.543C341.193 206.037 341.071 205.449 341.071 204.778C341.071 204.108 341.193 203.517 341.437 203.006C341.684 202.491 342.028 202.091 342.468 201.804C342.912 201.514 343.429 201.369 344.02 201.369C344.36 201.369 344.697 201.426 345.029 201.54C345.362 201.653 345.664 201.838 345.937 202.094C346.21 202.347 346.427 202.682 346.589 203.099C346.751 203.517 346.832 204.031 346.832 204.642V205.068H341.787V204.199H345.809C345.809 203.83 345.735 203.5 345.588 203.21C345.443 202.92 345.235 202.692 344.966 202.524C344.699 202.357 344.383 202.273 344.02 202.273C343.619 202.273 343.272 202.372 342.98 202.571C342.69 202.767 342.467 203.023 342.311 203.338C342.154 203.653 342.076 203.991 342.076 204.352V204.932C342.076 205.426 342.162 205.845 342.332 206.189C342.505 206.53 342.745 206.79 343.052 206.969C343.359 207.145 343.716 207.233 344.122 207.233C344.386 207.233 344.625 207.196 344.838 207.122C345.054 207.045 345.24 206.932 345.396 206.781C345.552 206.628 345.673 206.437 345.758 206.21L346.73 206.483C346.627 206.812 346.456 207.102 346.214 207.352C345.973 207.599 345.674 207.793 345.319 207.932C344.964 208.068 344.565 208.136 344.122 208.136Z" fill="black"/>
<path d="M100.977 199.273V208H99.9545L95.1989 201.148H95.1136V208H94.0568V199.273H95.0795L99.8523 206.142H99.9375V199.273H100.977ZM105.615 208.136C105.024 208.136 104.505 207.996 104.059 207.714C103.616 207.433 103.27 207.04 103.02 206.534C102.772 206.028 102.649 205.437 102.649 204.761C102.649 204.08 102.772 203.484 103.02 202.976C103.27 202.467 103.616 202.072 104.059 201.791C104.505 201.51 105.024 201.369 105.615 201.369C106.206 201.369 106.723 201.51 107.166 201.791C107.612 202.072 107.958 202.467 108.206 202.976C108.456 203.484 108.581 204.08 108.581 204.761C108.581 205.437 108.456 206.028 108.206 206.534C107.958 207.04 107.612 207.433 107.166 207.714C106.723 207.996 106.206 208.136 105.615 208.136ZM105.615 207.233C106.064 207.233 106.433 207.118 106.723 206.888C107.012 206.658 107.227 206.355 107.366 205.98C107.505 205.605 107.575 205.199 107.575 204.761C107.575 204.324 107.505 203.916 107.366 203.538C107.227 203.161 107.012 202.855 106.723 202.622C106.433 202.389 106.064 202.273 105.615 202.273C105.166 202.273 104.797 202.389 104.507 202.622C104.217 202.855 104.002 203.161 103.863 203.538C103.724 203.916 103.654 204.324 103.654 204.761C103.654 205.199 103.724 205.605 103.863 205.98C104.002 206.355 104.217 206.658 104.507 206.888C104.797 207.118 105.166 207.233 105.615 207.233ZM110.116 208V201.455H111.087V202.443H111.156C111.275 202.119 111.491 201.857 111.803 201.655C112.116 201.453 112.468 201.352 112.86 201.352C112.934 201.352 113.026 201.354 113.137 201.357C113.248 201.359 113.332 201.364 113.388 201.369V202.392C113.354 202.384 113.276 202.371 113.154 202.354C113.035 202.334 112.908 202.324 112.775 202.324C112.457 202.324 112.173 202.391 111.923 202.524C111.675 202.655 111.479 202.837 111.335 203.07C111.192 203.3 111.121 203.562 111.121 203.858V208H110.116ZM114.581 208V201.455H115.552V202.477H115.637C115.774 202.128 115.994 201.857 116.298 201.663C116.602 201.467 116.967 201.369 117.393 201.369C117.825 201.369 118.184 201.467 118.471 201.663C118.761 201.857 118.987 202.128 119.149 202.477H119.217C119.385 202.139 119.636 201.871 119.971 201.672C120.306 201.47 120.708 201.369 121.177 201.369C121.762 201.369 122.241 201.553 122.613 201.919C122.985 202.283 123.172 202.849 123.172 203.619V208H122.166V203.619C122.166 203.136 122.034 202.791 121.77 202.584C121.505 202.376 121.194 202.273 120.836 202.273C120.376 202.273 120.02 202.412 119.767 202.69C119.514 202.966 119.387 203.315 119.387 203.739V208H118.365V203.517C118.365 203.145 118.244 202.845 118.002 202.618C117.761 202.388 117.45 202.273 117.069 202.273C116.808 202.273 116.564 202.342 116.336 202.482C116.112 202.621 115.93 202.814 115.791 203.061C115.654 203.305 115.586 203.588 115.586 203.909V208H114.581ZM126.936 208.153C126.522 208.153 126.145 208.075 125.807 207.919C125.469 207.76 125.201 207.531 125.002 207.233C124.803 206.932 124.703 206.568 124.703 206.142C124.703 205.767 124.777 205.463 124.925 205.23C125.073 204.994 125.27 204.81 125.517 204.676C125.765 204.543 126.037 204.443 126.336 204.378C126.637 204.31 126.939 204.256 127.243 204.216C127.641 204.165 127.963 204.126 128.211 204.101C128.461 204.072 128.642 204.026 128.756 203.96C128.873 203.895 128.931 203.781 128.931 203.619V203.585C128.931 203.165 128.816 202.838 128.586 202.605C128.358 202.372 128.013 202.256 127.55 202.256C127.07 202.256 126.694 202.361 126.421 202.571C126.148 202.781 125.956 203.006 125.846 203.244L124.891 202.903C125.061 202.506 125.289 202.196 125.573 201.974C125.86 201.75 126.172 201.594 126.51 201.506C126.851 201.415 127.186 201.369 127.516 201.369C127.726 201.369 127.968 201.395 128.24 201.446C128.516 201.494 128.782 201.595 129.037 201.749C129.296 201.902 129.51 202.134 129.681 202.443C129.851 202.753 129.936 203.168 129.936 203.688V208H128.931V207.114H128.88C128.811 207.256 128.698 207.408 128.539 207.57C128.38 207.732 128.168 207.869 127.904 207.983C127.64 208.097 127.317 208.153 126.936 208.153ZM127.09 207.25C127.488 207.25 127.823 207.172 128.096 207.016C128.371 206.859 128.578 206.658 128.718 206.411C128.86 206.163 128.931 205.903 128.931 205.631V204.71C128.888 204.761 128.794 204.808 128.65 204.851C128.507 204.891 128.343 204.926 128.155 204.957C127.971 204.986 127.79 205.011 127.614 205.034C127.441 205.054 127.3 205.071 127.192 205.085C126.931 205.119 126.686 205.175 126.459 205.251C126.235 205.325 126.053 205.437 125.914 205.588C125.777 205.736 125.709 205.937 125.709 206.193C125.709 206.543 125.838 206.807 126.097 206.986C126.358 207.162 126.689 207.25 127.09 207.25ZM132.778 199.273V208H131.772V199.273H132.778Z" fill="black"/>
<rect x="333.5" y="128.5" width="82" height="40" fill="white" stroke="#FF0000"/>
<path d="M359.642 153L357.256 144.273H358.33L360.153 151.381H360.239L362.097 144.273H363.29L365.148 151.381H365.233L367.057 144.273H368.131L365.744 153H364.653L362.727 146.045H362.659L360.733 153H359.642ZM369.311 153V146.455H370.317V153H369.311ZM369.822 145.364C369.626 145.364 369.457 145.297 369.315 145.163C369.176 145.03 369.107 144.869 369.107 144.682C369.107 144.494 369.176 144.334 369.315 144.2C369.457 144.067 369.626 144 369.822 144C370.018 144 370.186 144.067 370.325 144.2C370.467 144.334 370.538 144.494 370.538 144.682C370.538 144.869 370.467 145.03 370.325 145.163C370.186 145.297 370.018 145.364 369.822 145.364ZM373.164 149.062V153H372.159V146.455H373.13V147.477H373.216C373.369 147.145 373.602 146.878 373.914 146.676C374.227 146.472 374.63 146.369 375.125 146.369C375.568 146.369 375.956 146.46 376.288 146.642C376.62 146.821 376.879 147.094 377.064 147.46C377.248 147.824 377.341 148.284 377.341 148.841V153H376.335V148.909C376.335 148.395 376.201 147.994 375.934 147.707C375.667 147.418 375.301 147.273 374.835 147.273C374.514 147.273 374.227 147.342 373.974 147.482C373.724 147.621 373.527 147.824 373.382 148.091C373.237 148.358 373.164 148.682 373.164 149.062ZM381.65 153.136C381.104 153.136 380.623 152.999 380.205 152.723C379.788 152.445 379.461 152.053 379.225 151.547C378.989 151.038 378.871 150.438 378.871 149.744C378.871 149.057 378.989 148.46 379.225 147.955C379.461 147.449 379.789 147.058 380.21 146.783C380.63 146.507 381.116 146.369 381.667 146.369C382.093 146.369 382.43 146.44 382.677 146.582C382.927 146.722 383.117 146.881 383.248 147.06C383.381 147.236 383.485 147.381 383.559 147.494H383.644V144.273H384.65V153H383.678V151.994H383.559C383.485 152.114 383.38 152.264 383.244 152.446C383.107 152.625 382.913 152.786 382.66 152.928C382.407 153.067 382.07 153.136 381.65 153.136ZM381.786 152.233C382.19 152.233 382.531 152.128 382.809 151.918C383.087 151.705 383.299 151.411 383.444 151.036C383.589 150.658 383.661 150.222 383.661 149.727C383.661 149.239 383.59 148.811 383.448 148.445C383.306 148.075 383.096 147.788 382.817 147.584C382.539 147.376 382.195 147.273 381.786 147.273C381.36 147.273 381.005 147.382 380.721 147.601C380.44 147.817 380.228 148.111 380.086 148.483C379.947 148.852 379.877 149.267 379.877 149.727C379.877 150.193 379.948 150.616 380.09 150.997C380.235 151.375 380.448 151.676 380.729 151.901C381.013 152.122 381.366 152.233 381.786 152.233ZM387.279 155.455C387.109 155.455 386.957 155.44 386.823 155.412C386.69 155.386 386.597 155.361 386.546 155.335L386.802 154.449C387.046 154.511 387.262 154.534 387.45 154.517C387.637 154.5 387.803 154.416 387.948 154.266C388.096 154.118 388.231 153.878 388.353 153.545L388.54 153.034L386.12 146.455H387.211L389.018 151.67H389.086L390.893 146.455H391.984L389.205 153.955C389.08 154.293 388.925 154.572 388.741 154.794C388.556 155.018 388.342 155.185 388.097 155.293C387.856 155.401 387.583 155.455 387.279 155.455Z" fill="black"/>
<rect x="39.5" y="128.5" width="82" height="40" fill="white" stroke="#FF0000"/>
<path d="M59.0568 153V144.273H60.1136V148.159H64.767V144.273H65.8239V153H64.767V149.097H60.1136V153H59.0568ZM71.9283 150.324V146.455H72.9339V153H71.9283V151.892H71.8601C71.7067 152.224 71.468 152.507 71.1442 152.74C70.8203 152.97 70.4112 153.085 69.9169 153.085C69.5078 153.085 69.1442 152.996 68.826 152.817C68.5078 152.635 68.2578 152.362 68.076 151.999C67.8942 151.632 67.8033 151.17 67.8033 150.614V146.455H68.8089V150.545C68.8089 151.023 68.9425 151.403 69.2095 151.688C69.4794 151.972 69.8232 152.114 70.2408 152.114C70.4908 152.114 70.745 152.05 71.0036 151.922C71.2649 151.794 71.4837 151.598 71.6598 151.334C71.8388 151.07 71.9283 150.733 71.9283 150.324ZM74.7759 153V146.455H75.7475V147.477H75.8327C75.9691 147.128 76.1893 146.857 76.4933 146.663C76.7972 146.467 77.1623 146.369 77.5884 146.369C78.0202 146.369 78.3796 146.467 78.6665 146.663C78.9563 146.857 79.1822 147.128 79.3441 147.477H79.4123C79.5799 147.139 79.8313 146.871 80.1665 146.672C80.5018 146.47 80.9038 146.369 81.3725 146.369C81.9577 146.369 82.4364 146.553 82.8086 146.919C83.1808 147.283 83.3668 147.849 83.3668 148.619V153H82.3612V148.619C82.3612 148.136 82.229 147.791 81.9648 147.584C81.7006 147.376 81.3896 147.273 81.0316 147.273C80.5714 147.273 80.2148 147.412 79.962 147.69C79.7092 147.966 79.5827 148.315 79.5827 148.739V153H78.56V148.517C78.56 148.145 78.4393 147.845 78.1978 147.618C77.9563 147.388 77.6452 147.273 77.2646 147.273C77.0032 147.273 76.7589 147.342 76.5316 147.482C76.3072 147.621 76.1254 147.814 75.9862 148.061C75.8498 148.305 75.7816 148.588 75.7816 148.909V153H74.7759ZM85.2056 153V146.455H86.2113V153H85.2056ZM85.717 145.364C85.521 145.364 85.3519 145.297 85.2099 145.163C85.0707 145.03 85.0011 144.869 85.0011 144.682C85.0011 144.494 85.0707 144.334 85.2099 144.2C85.3519 144.067 85.521 144 85.717 144C85.913 144 86.0806 144.067 86.2198 144.2C86.3619 144.334 86.4329 144.494 86.4329 144.682C86.4329 144.869 86.3619 145.03 86.2198 145.163C86.0806 145.297 85.913 145.364 85.717 145.364ZM90.5249 153.136C89.9794 153.136 89.4979 152.999 89.0803 152.723C88.6626 152.445 88.3359 152.053 88.1001 151.547C87.8643 151.038 87.7464 150.438 87.7464 149.744C87.7464 149.057 87.8643 148.46 88.1001 147.955C88.3359 147.449 88.6641 147.058 89.0845 146.783C89.505 146.507 89.9908 146.369 90.5419 146.369C90.968 146.369 91.3047 146.44 91.5518 146.582C91.8018 146.722 91.9922 146.881 92.1229 147.06C92.2564 147.236 92.3601 147.381 92.4339 147.494H92.5192V144.273H93.5249V153H92.5533V151.994H92.4339C92.3601 152.114 92.255 152.264 92.1186 152.446C91.9822 152.625 91.7876 152.786 91.5348 152.928C91.282 153.067 90.9453 153.136 90.5249 153.136ZM90.6612 152.233C91.0646 152.233 91.4055 152.128 91.6839 151.918C91.9624 151.705 92.174 151.411 92.3189 151.036C92.4638 150.658 92.5362 150.222 92.5362 149.727C92.5362 149.239 92.4652 148.811 92.3232 148.445C92.1811 148.075 91.9709 147.788 91.6925 147.584C91.4141 147.376 91.0703 147.273 90.6612 147.273C90.2351 147.273 89.88 147.382 89.5959 147.601C89.3146 147.817 89.103 148.111 88.9609 148.483C88.8217 148.852 88.7521 149.267 88.7521 149.727C88.7521 150.193 88.8232 150.616 88.9652 150.997C89.1101 151.375 89.3232 151.676 89.6044 151.901C89.8885 152.122 90.2408 152.233 90.6612 152.233ZM95.5064 153V146.455H96.5121V153H95.5064ZM96.0178 145.364C95.8217 145.364 95.6527 145.297 95.5107 145.163C95.3714 145.03 95.3018 144.869 95.3018 144.682C95.3018 144.494 95.3714 144.334 95.5107 144.2C95.6527 144.067 95.8217 144 96.0178 144C96.2138 144 96.3814 144.067 96.5206 144.2C96.6626 144.334 96.7337 144.494 96.7337 144.682C96.7337 144.869 96.6626 145.03 96.5206 145.163C96.3814 145.297 96.2138 145.364 96.0178 145.364ZM101.201 146.455V147.307H97.8086V146.455H101.201ZM98.7972 144.886H99.8029V151.125C99.8029 151.409 99.8441 151.622 99.9265 151.764C100.012 151.903 100.12 151.997 100.25 152.045C100.384 152.091 100.525 152.114 100.672 152.114C100.783 152.114 100.874 152.108 100.945 152.097C101.016 152.082 101.073 152.071 101.115 152.062L101.32 152.966C101.252 152.991 101.157 153.017 101.034 153.043C100.912 153.071 100.757 153.085 100.57 153.085C100.286 153.085 100.007 153.024 99.7347 152.902C99.4648 152.78 99.2404 152.594 99.0614 152.344C98.8853 152.094 98.7972 151.778 98.7972 151.398V144.886ZM103.361 155.455C103.191 155.455 103.039 155.44 102.905 155.412C102.772 155.386 102.679 155.361 102.628 155.335L102.884 154.449C103.128 154.511 103.344 154.534 103.532 154.517C103.719 154.5 103.885 154.416 104.03 154.266C104.178 154.118 104.313 153.878 104.435 153.545L104.623 153.034L102.202 146.455H103.293L105.1 151.67H105.168L106.975 146.455H108.066L105.287 153.955C105.162 154.293 105.007 154.572 104.823 154.794C104.638 155.018 104.424 155.185 104.179 155.293C103.938 155.401 103.665 155.455 103.361 155.455Z" fill="black"/>
<path d="M226.293 134.707C226.683 135.098 227.317 135.098 227.707 134.707L234.071 128.343C234.462 127.953 234.462 127.319 234.071 126.929C233.681 126.538 233.047 126.538 232.657 126.929L227 132.586L221.343 126.929C220.953 126.538 220.319 126.538 219.929 126.929C219.538 127.319 219.538 127.953 219.929 128.343L226.293 134.707ZM226 87L226 134L228 134L228 87L226 87Z" fill="black"/>
<path d="M226.293 72.7071C226.683 73.0976 227.317 73.0976 227.707 72.7071L234.071 66.3431C234.462 65.9526 234.462 65.3195 234.071 64.9289C233.681 64.5384 233.047 64.5384 232.657 64.9289L227 70.5858L221.343 64.9289C220.953 64.5384 220.319 64.5384 219.929 64.9289C219.538 65.3195 219.538 65.9526 219.929 66.3431L226.293 72.7071ZM226 41L226 72L228 72L228 41L226 41Z" fill="black"/>
<path d="M153.064 73.6469C152.869 74.1637 153.13 74.7406 153.647 74.9356L162.067 78.1131C162.584 78.3081 163.161 78.0473 163.356 77.5306C163.551 77.0139 163.29 76.4369 162.773 76.2419L155.289 73.4175L158.113 65.9326C158.308 65.4159 158.047 64.839 157.531 64.644C157.014 64.449 156.437 64.7098 156.242 65.2265L153.064 73.6469ZM226.588 40.0888L153.588 73.0888L154.412 74.9112L227.412 41.9112L226.588 40.0888Z" fill="black"/>
<path d="M305.376 74.9267C305.888 74.7192 306.134 74.1361 305.927 73.6243L302.545 65.2836C302.338 64.7718 301.755 64.5251 301.243 64.7326C300.731 64.9401 300.484 65.5232 300.692 66.0351L303.698 73.449L296.284 76.4546C295.772 76.6621 295.525 77.2452 295.733 77.757C295.94 78.2689 296.523 78.5156 297.035 78.3081L305.376 74.9267ZM226.61 41.921L304.61 74.921L305.39 73.079L227.39 40.079L226.61 41.921Z" fill="black"/>
<path d="M246.5 156C246.5 166.205 238.006 174.5 227.5 174.5C216.994 174.5 208.5 166.205 208.5 156C208.5 145.795 216.994 137.5 227.5 137.5C238.006 137.5 246.5 145.795 246.5 156Z" fill="white" stroke="black"/>
<path d="M216.307 152.273H217.517L219.938 156.347H220.04L222.46 152.273H223.67L220.517 157.403V161H219.46V157.403L216.307 152.273ZM226.719 161.136C226.089 161.136 225.545 160.997 225.087 160.719C224.633 160.438 224.282 160.045 224.035 159.543C223.79 159.037 223.668 158.449 223.668 157.778C223.668 157.108 223.79 156.517 224.035 156.006C224.282 155.491 224.626 155.091 225.066 154.804C225.509 154.514 226.026 154.369 226.617 154.369C226.958 154.369 227.295 154.426 227.627 154.54C227.96 154.653 228.262 154.838 228.535 155.094C228.808 155.347 229.025 155.682 229.187 156.099C229.349 156.517 229.43 157.031 229.43 157.642V158.068H224.384V157.199H228.407C228.407 156.83 228.333 156.5 228.185 156.21C228.04 155.92 227.833 155.692 227.563 155.524C227.296 155.357 226.981 155.273 226.617 155.273C226.217 155.273 225.87 155.372 225.577 155.571C225.288 155.767 225.065 156.023 224.908 156.338C224.752 156.653 224.674 156.991 224.674 157.352V157.932C224.674 158.426 224.759 158.845 224.93 159.189C225.103 159.53 225.343 159.79 225.65 159.969C225.957 160.145 226.313 160.233 226.719 160.233C226.984 160.233 227.222 160.196 227.435 160.122C227.651 160.045 227.837 159.932 227.994 159.781C228.15 159.628 228.271 159.437 228.356 159.21L229.327 159.483C229.225 159.812 229.053 160.102 228.812 160.352C228.57 160.599 228.272 160.793 227.917 160.932C227.562 161.068 227.163 161.136 226.719 161.136ZM235.596 155.92L234.692 156.176C234.636 156.026 234.552 155.879 234.441 155.737C234.333 155.592 234.185 155.473 233.998 155.379C233.81 155.286 233.57 155.239 233.278 155.239C232.877 155.239 232.543 155.331 232.276 155.516C232.012 155.697 231.88 155.929 231.88 156.21C231.88 156.46 231.971 156.658 232.153 156.803C232.335 156.947 232.619 157.068 233.005 157.165L233.977 157.403C234.562 157.545 234.998 157.763 235.285 158.055C235.572 158.345 235.715 158.719 235.715 159.176C235.715 159.551 235.607 159.886 235.391 160.182C235.178 160.477 234.88 160.71 234.496 160.881C234.113 161.051 233.667 161.136 233.158 161.136C232.491 161.136 231.938 160.991 231.501 160.702C231.063 160.412 230.786 159.989 230.67 159.432L231.624 159.193C231.715 159.545 231.887 159.81 232.14 159.986C232.396 160.162 232.729 160.25 233.141 160.25C233.61 160.25 233.982 160.151 234.258 159.952C234.536 159.75 234.675 159.509 234.675 159.227C234.675 159 234.596 158.81 234.437 158.656C234.278 158.5 234.033 158.384 233.704 158.307L232.613 158.051C232.013 157.909 231.573 157.689 231.292 157.391C231.013 157.089 230.874 156.713 230.874 156.261C230.874 155.892 230.978 155.565 231.185 155.281C231.396 154.997 231.681 154.774 232.042 154.612C232.406 154.45 232.817 154.369 233.278 154.369C233.925 154.369 234.434 154.511 234.803 154.795C235.175 155.08 235.44 155.455 235.596 155.92Z" fill="black"/>
<ellipse cx="435.5" cy="255" rx="19.5" ry="19" fill="#D9D9D9"/>
<path d="M454.5 255C454.5 265.205 446.006 273.5 435.5 273.5C424.994 273.5 416.5 265.205 416.5 255C416.5 244.795 424.994 236.5 435.5 236.5C446.006 236.5 454.5 244.795 454.5 255Z" fill="white" stroke="black"/>
<ellipse cx="314.5" cy="256" rx="19.5" ry="19" fill="#D9D9D9"/>
<path d="M333.5 256C333.5 266.205 325.006 274.5 314.5 274.5C303.994 274.5 295.5 266.205 295.5 256C295.5 245.795 303.994 237.5 314.5 237.5C325.006 237.5 333.5 245.795 333.5 256Z" fill="white" stroke="black"/>
<path d="M312.977 251.273V260H311.955L307.199 253.148H307.114V260H306.057V251.273H307.08L311.852 258.142H311.938V251.273H312.977ZM317.615 260.136C317.024 260.136 316.505 259.996 316.059 259.714C315.616 259.433 315.27 259.04 315.02 258.534C314.772 258.028 314.649 257.437 314.649 256.761C314.649 256.08 314.772 255.484 315.02 254.976C315.27 254.467 315.616 254.072 316.059 253.791C316.505 253.51 317.024 253.369 317.615 253.369C318.206 253.369 318.723 253.51 319.166 253.791C319.612 254.072 319.958 254.467 320.206 254.976C320.456 255.484 320.581 256.08 320.581 256.761C320.581 257.437 320.456 258.028 320.206 258.534C319.958 259.04 319.612 259.433 319.166 259.714C318.723 259.996 318.206 260.136 317.615 260.136ZM317.615 259.233C318.064 259.233 318.433 259.118 318.723 258.888C319.012 258.658 319.227 258.355 319.366 257.98C319.505 257.605 319.575 257.199 319.575 256.761C319.575 256.324 319.505 255.916 319.366 255.538C319.227 255.161 319.012 254.855 318.723 254.622C318.433 254.389 318.064 254.273 317.615 254.273C317.166 254.273 316.797 254.389 316.507 254.622C316.217 254.855 316.002 255.161 315.863 255.538C315.724 255.916 315.654 256.324 315.654 256.761C315.654 257.199 315.724 257.605 315.863 257.98C316.002 258.355 316.217 258.658 316.507 258.888C316.797 259.118 317.166 259.233 317.615 259.233Z" fill="black"/>
<ellipse cx="141.5" cy="255" rx="19.5" ry="19" fill="#D9D9D9"/>
<path d="M160.5 255C160.5 265.205 152.006 273.5 141.5 273.5C130.994 273.5 122.5 265.205 122.5 255C122.5 244.795 130.994 236.5 141.5 236.5C152.006 236.5 160.5 244.795 160.5 255Z" fill="white" stroke="black"/>
<path d="M38.5 255C38.5 265.205 30.0057 273.5 19.5 273.5C8.99427 273.5 0.5 265.205 0.5 255C0.5 244.795 8.99427 236.5 19.5 236.5C30.0057 236.5 38.5 244.795 38.5 255Z" fill="white" stroke="black"/>
<path d="M81.0037 122.915C80.9565 123.465 81.3643 123.949 81.9146 123.996L90.8817 124.765C91.432 124.812 91.9163 124.404 91.9635 123.854C92.0106 123.304 91.6028 122.819 91.0525 122.772L83.0817 122.089L83.765 114.118C83.8121 113.568 83.4043 113.084 82.854 113.037C82.3037 112.989 81.8194 113.397 81.7723 113.947L81.0037 122.915ZM119.356 90.2351L81.3559 122.235L82.6441 123.765L120.644 91.7649L119.356 90.2351Z" fill="black"/>
<path d="M363.984 124C364.536 124.009 364.991 123.568 365 123.016L365.143 114.017C365.151 113.465 364.711 113.01 364.159 113.001C363.606 112.992 363.152 113.433 363.143 113.985L363.016 121.984L355.017 121.857C354.465 121.849 354.01 122.289 354.001 122.841C353.992 123.394 354.433 123.848 354.985 123.857L363.984 124ZM332.282 91.6958L363.282 123.696L364.718 122.304L333.718 90.3042L332.282 91.6958Z" fill="black"/>
<path d="M49.0041 193.909C48.9541 194.459 49.3594 194.946 49.9095 194.996L58.8725 195.811C59.4225 195.861 59.9089 195.455 59.9589 194.905C60.0089 194.355 59.6036 193.869 59.0536 193.819L51.0864 193.095L51.8107 185.127C51.8607 184.577 51.4554 184.091 50.9054 184.041C50.3553 183.991 49.8689 184.396 49.8189 184.946L49.0041 193.909ZM79.3598 168.232L49.3598 193.232L50.6402 194.768L80.6402 169.768L79.3598 168.232Z" fill="black"/>
<path d="M344.004 193.909C343.954 194.459 344.359 194.946 344.909 194.996L353.873 195.811C354.423 195.861 354.909 195.455 354.959 194.905C355.009 194.355 354.604 193.869 354.054 193.819L346.086 193.095L346.811 185.127C346.861 184.577 346.455 184.091 345.905 184.041C345.355 183.991 344.869 184.396 344.819 184.946L344.004 193.909ZM374.36 168.232L344.36 193.232L345.64 194.768L375.64 169.768L374.36 168.232Z" fill="black"/>
<path d="M22.0415 235.285C22.1988 235.814 22.7556 236.116 23.285 235.959L31.9118 233.394C32.4412 233.236 32.7427 232.68 32.5854 232.15C32.428 231.621 31.8712 231.319 31.3419 231.477L23.6736 233.756L21.3938 226.088C21.2364 225.559 20.6797 225.257 20.1503 225.415C19.6209 225.572 19.3193 226.129 19.4767 226.658L22.0415 235.285ZM35.1207 210.524L22.1207 234.524L23.8793 235.476L36.8793 211.476L35.1207 210.524Z" fill="black"/>
<path d="M320.041 235.285C320.199 235.814 320.756 236.116 321.285 235.959L329.912 233.394C330.441 233.236 330.743 232.68 330.585 232.15C330.428 231.621 329.871 231.319 329.342 231.477L321.674 233.756L319.394 226.088C319.236 225.559 318.68 225.257 318.15 225.415C317.621 225.572 317.319 226.129 317.477 226.658L320.041 235.285ZM333.121 210.524L320.121 234.524L321.879 235.476L334.879 211.476L333.121 210.524Z" fill="black"/>
<path d="M109.074 194.997C109.625 194.956 110.038 194.477 109.997 193.926L109.332 184.951C109.292 184.4 108.812 183.987 108.261 184.027C107.711 184.068 107.297 184.548 107.338 185.098L107.929 193.077L99.9507 193.668C99.3999 193.708 98.9865 194.188 99.0273 194.739C99.0681 195.289 99.5477 195.703 100.098 195.662L109.074 194.997ZM79.3471 169.757L108.347 194.757L109.653 193.243L80.6529 168.243L79.3471 169.757Z" fill="black"/>
<path d="M404.074 194.997C404.625 194.956 405.038 194.477 404.997 193.926L404.332 184.951C404.292 184.4 403.812 183.987 403.261 184.027C402.711 184.068 402.297 184.548 402.338 185.098L402.929 193.077L394.951 193.668C394.4 193.708 393.987 194.188 394.027 194.739C394.068 195.289 394.548 195.703 395.098 195.662L404.074 194.997ZM374.347 169.757L403.347 194.757L404.653 193.243L375.653 168.243L374.347 169.757Z" fill="black"/>
<path d="M136.852 235.989C137.398 236.071 137.907 235.695 137.989 235.148L139.324 226.248C139.406 225.702 139.03 225.193 138.483 225.111C137.937 225.029 137.428 225.405 137.346 225.951L136.159 233.863L128.248 232.676C127.702 232.594 127.193 232.97 127.111 233.517C127.029 234.063 127.405 234.572 127.951 234.654L136.852 235.989ZM119.196 212.594L136.196 235.594L137.804 234.406L120.804 211.406L119.196 212.594Z" fill="black"/>
<path d="M427.852 234.989C428.398 235.071 428.907 234.695 428.989 234.148L430.324 225.248C430.406 224.702 430.03 224.193 429.483 224.111C428.937 224.029 428.428 224.405 428.346 224.951L427.159 232.863L419.248 231.676C418.702 231.594 418.193 231.97 418.111 232.517C418.029 233.063 418.405 233.572 418.951 233.654L427.852 234.989ZM410.196 211.594L427.196 234.594L428.804 233.406L411.804 210.406L410.196 211.594Z" fill="black"/>
<path d="M131.307 250.273H132.517L134.938 254.347H135.04L137.46 250.273H138.67L135.517 255.403V259H134.46V255.403L131.307 250.273ZM141.719 259.136C141.089 259.136 140.545 258.997 140.087 258.719C139.633 258.438 139.282 258.045 139.035 257.543C138.79 257.037 138.668 256.449 138.668 255.778C138.668 255.108 138.79 254.517 139.035 254.006C139.282 253.491 139.626 253.091 140.066 252.804C140.509 252.514 141.026 252.369 141.617 252.369C141.958 252.369 142.295 252.426 142.627 252.54C142.96 252.653 143.262 252.838 143.535 253.094C143.808 253.347 144.025 253.682 144.187 254.099C144.349 254.517 144.43 255.031 144.43 255.642V256.068H139.384V255.199H143.407C143.407 254.83 143.333 254.5 143.185 254.21C143.04 253.92 142.833 253.692 142.563 253.524C142.296 253.357 141.981 253.273 141.617 253.273C141.217 253.273 140.87 253.372 140.577 253.571C140.288 253.767 140.065 254.023 139.908 254.338C139.752 254.653 139.674 254.991 139.674 255.352V255.932C139.674 256.426 139.759 256.845 139.93 257.189C140.103 257.53 140.343 257.79 140.65 257.969C140.957 258.145 141.313 258.233 141.719 258.233C141.984 258.233 142.222 258.196 142.435 258.122C142.651 258.045 142.837 257.932 142.994 257.781C143.15 257.628 143.271 257.437 143.356 257.21L144.327 257.483C144.225 257.812 144.053 258.102 143.812 258.352C143.57 258.599 143.272 258.793 142.917 258.932C142.562 259.068 142.163 259.136 141.719 259.136ZM150.596 253.92L149.692 254.176C149.636 254.026 149.552 253.879 149.441 253.737C149.333 253.592 149.185 253.473 148.998 253.379C148.81 253.286 148.57 253.239 148.278 253.239C147.877 253.239 147.543 253.331 147.276 253.516C147.012 253.697 146.88 253.929 146.88 254.21C146.88 254.46 146.971 254.658 147.153 254.803C147.335 254.947 147.619 255.068 148.005 255.165L148.977 255.403C149.562 255.545 149.998 255.763 150.285 256.055C150.572 256.345 150.715 256.719 150.715 257.176C150.715 257.551 150.607 257.886 150.391 258.182C150.178 258.477 149.88 258.71 149.496 258.881C149.113 259.051 148.667 259.136 148.158 259.136C147.491 259.136 146.938 258.991 146.501 258.702C146.063 258.412 145.786 257.989 145.67 257.432L146.624 257.193C146.715 257.545 146.887 257.81 147.14 257.986C147.396 258.162 147.729 258.25 148.141 258.25C148.61 258.25 148.982 258.151 149.258 257.952C149.536 257.75 149.675 257.509 149.675 257.227C149.675 257 149.596 256.81 149.437 256.656C149.278 256.5 149.033 256.384 148.704 256.307L147.613 256.051C147.013 255.909 146.573 255.689 146.292 255.391C146.013 255.089 145.874 254.713 145.874 254.261C145.874 253.892 145.978 253.565 146.185 253.281C146.396 252.997 146.681 252.774 147.042 252.612C147.406 252.45 147.817 252.369 148.278 252.369C148.925 252.369 149.434 252.511 149.803 252.795C150.175 253.08 150.44 253.455 150.596 253.92Z" fill="black"/>
<path d="M426.307 251.273H427.517L429.938 255.347H430.04L432.46 251.273H433.67L430.517 256.403V260H429.46V256.403L426.307 251.273ZM436.719 260.136C436.089 260.136 435.545 259.997 435.087 259.719C434.633 259.438 434.282 259.045 434.035 258.543C433.79 258.037 433.668 257.449 433.668 256.778C433.668 256.108 433.79 255.517 434.035 255.006C434.282 254.491 434.626 254.091 435.066 253.804C435.509 253.514 436.026 253.369 436.617 253.369C436.958 253.369 437.295 253.426 437.627 253.54C437.96 253.653 438.262 253.838 438.535 254.094C438.808 254.347 439.025 254.682 439.187 255.099C439.349 255.517 439.43 256.031 439.43 256.642V257.068H434.384V256.199H438.407C438.407 255.83 438.333 255.5 438.185 255.21C438.04 254.92 437.833 254.692 437.563 254.524C437.296 254.357 436.981 254.273 436.617 254.273C436.217 254.273 435.87 254.372 435.577 254.571C435.288 254.767 435.065 255.023 434.908 255.338C434.752 255.653 434.674 255.991 434.674 256.352V256.932C434.674 257.426 434.759 257.845 434.93 258.189C435.103 258.53 435.343 258.79 435.65 258.969C435.957 259.145 436.313 259.233 436.719 259.233C436.984 259.233 437.222 259.196 437.435 259.122C437.651 259.045 437.837 258.932 437.994 258.781C438.15 258.628 438.271 258.437 438.356 258.21L439.327 258.483C439.225 258.812 439.053 259.102 438.812 259.352C438.57 259.599 438.272 259.793 437.917 259.932C437.562 260.068 437.163 260.136 436.719 260.136ZM445.596 254.92L444.692 255.176C444.636 255.026 444.552 254.879 444.441 254.737C444.333 254.592 444.185 254.473 443.998 254.379C443.81 254.286 443.57 254.239 443.278 254.239C442.877 254.239 442.543 254.331 442.276 254.516C442.012 254.697 441.88 254.929 441.88 255.21C441.88 255.46 441.971 255.658 442.153 255.803C442.335 255.947 442.619 256.068 443.005 256.165L443.977 256.403C444.562 256.545 444.998 256.763 445.285 257.055C445.572 257.345 445.715 257.719 445.715 258.176C445.715 258.551 445.607 258.886 445.391 259.182C445.178 259.477 444.88 259.71 444.496 259.881C444.113 260.051 443.667 260.136 443.158 260.136C442.491 260.136 441.938 259.991 441.501 259.702C441.063 259.412 440.786 258.989 440.67 258.432L441.624 258.193C441.715 258.545 441.887 258.81 442.14 258.986C442.396 259.162 442.729 259.25 443.141 259.25C443.61 259.25 443.982 259.151 444.258 258.952C444.536 258.75 444.675 258.509 444.675 258.227C444.675 258 444.596 257.81 444.437 257.656C444.278 257.5 444.033 257.384 443.704 257.307L442.613 257.051C442.013 256.909 441.573 256.689 441.292 256.391C441.013 256.089 440.874 255.713 440.874 255.261C440.874 254.892 440.978 254.565 441.185 254.281C441.396 253.997 441.681 253.774 442.042 253.612C442.406 253.45 442.817 253.369 443.278 253.369C443.925 253.369 444.434 253.511 444.803 253.795C445.175 254.08 445.44 254.455 445.596 254.92Z" fill="black"/>
<path d="M19.9773 250.273V259H18.9545L14.1989 252.148H14.1136V259H13.0568V250.273H14.0795L18.8523 257.142H18.9375V250.273H19.9773ZM24.6147 259.136C24.0238 259.136 23.5053 258.996 23.0593 258.714C22.6161 258.433 22.2695 258.04 22.0195 257.534C21.7724 257.028 21.6488 256.437 21.6488 255.761C21.6488 255.08 21.7724 254.484 22.0195 253.976C22.2695 253.467 22.6161 253.072 23.0593 252.791C23.5053 252.51 24.0238 252.369 24.6147 252.369C25.2056 252.369 25.7227 252.51 26.1658 252.791C26.6119 253.072 26.9585 253.467 27.2056 253.976C27.4556 254.484 27.5806 255.08 27.5806 255.761C27.5806 256.437 27.4556 257.028 27.2056 257.534C26.9585 258.04 26.6119 258.433 26.1658 258.714C25.7227 258.996 25.2056 259.136 24.6147 259.136ZM24.6147 258.233C25.0636 258.233 25.4329 258.118 25.7227 257.888C26.0124 257.658 26.2269 257.355 26.3661 256.98C26.5053 256.605 26.5749 256.199 26.5749 255.761C26.5749 255.324 26.5053 254.916 26.3661 254.538C26.2269 254.161 26.0124 253.855 25.7227 253.622C25.4329 253.389 25.0636 253.273 24.6147 253.273C24.1658 253.273 23.7965 253.389 23.5067 253.622C23.217 253.855 23.0025 254.161 22.8633 254.538C22.7241 254.916 22.6545 255.324 22.6545 255.761C22.6545 256.199 22.7241 256.605 22.8633 256.98C23.0025 257.355 23.217 257.658 23.5067 257.888C23.7965 258.118 24.1658 258.233 24.6147 258.233Z" fill="black"/>
</svg>
